0
SECTION
2
HEADER
9
$INSUNITS
70
4
0
ENDSEC
0
SECTION
2
TABLES
0
TABLE
2
LTYPE
0
LTYPE
72
65
70
64
2
CONTINUOUS
3
______
73
0
40
0
0
ENDTAB
0
TABLE
2
LAYER
0
ENDTAB
0
ENDSEC
0
SECTION
2
ENTITIES
0
LINE
8
0
10
95.1339778
20
-112.9449538
11
112.048445
21
-106.7885912
0
LINE
8
0
10
113.2437901
20
-104.2251658
11
112.0959568
21
-101.0715199
0
LINE
8
0
10
92.2285323
20
-110.8099162
11
92.5705524
21
-111.7496088
0
LINE
8
0
10
76.3228702
20
-61.2618596
11
94.6769416
21
-54.5815239
0
LINE
8
0
10
75.1275251
20
-63.825285
11
77.8636863
21
-71.3428262
0
LINE
8
0
10
113.4745821
20
-98.4511844
11
127.6032477
21
-94.797263
0
LINE
8
0
10
129.038783
20
-92.3602077
11
128.1381782
21
-88.8778273
0
LINE
8
0
10
96.4056899
20
-46.0559828
11
115.3264812
21
-41.1627334
0
LINE
8
0
10
94.9701546
20
-48.4930381
11
95.9291967
21
-52.2013786
0
LINE
8
0
10
129.7616044
20
-86.4016905
11
140.2585956
21
-84.7391305
0
LINE
8
0
10
138.1942097
20
-33.3503909
11
137.8936991
21
-31.4530415
0
LINE
8
0
10
135.6054534
20
-29.7905338
11
117.8270633
21
-32.6063542
0
LINE
8
0
10
116.1645556
20
-34.8945999
11
116.8010978
21
-38.9135691
0
LINE
8
0
10
145.4608249
20
-92.0148994
11
161.2638383
21
-89.5119479
0
LINE
8
0
10
142.5468413
20
-86.4016382
11
143.1725792
21
-90.3523917
0
LINE
8
0
10
156.5983377
20
-34.4853238
11
156.6106961
21
-34.5633512
0
LINE
8
0
10
161.5767072
20
-91.4873245
11
161.5865842
21
-91.4857601
0
LINE
8
0
10
161.2638383
20
-89.5119479
11
161.5767072
21
-91.4873245
0
LINE
8
0
10
158.8989418
20
-36.2258589
11
191.1963503
21
-31.1104519
0
LINE
8
0
10
166.6906502
20
-110.926658
11
182.6105336
21
-108.4051961
0
LINE
8
0
10
212.129283
20
-95.4915189
11
204.0520203
21
-92.7102943
0
LINE
8
0
10
205.0567367
20
-115.5498399
11
217.0291611
21
-128.3886932
0
LINE
8
0
10
219.8558652
20
-128.4874038
11
232.2888782
21
-116.8934317
0
LINE
8
0
10
232.3875888
20
-114.0667276
11
218.9374851
21
-99.6432573
0
LINE
8
0
10
76.5094099
20
-114.4028533
11
89.6651068
21
-109.6145712
0
LINE
8
0
10
62.3172996
20
-81.2579591
11
73.9459845
21
-113.2075083
0
LINE
8
0
10
76.6683413
20
-73.9062517
11
63.5126447
21
-78.6945337
0
LINE
8
0
10
161.5865842
20
-91.4857601
11
164.4024045
21
-109.2641503
0
LINE
8
0
10
154.310092
20
-32.8228161
11
140.4824554
21
-35.0128986
0
LINE
8
0
10
202.72778
20
-91.1321261
11
193.484596
21
-32.7729596
0
LINE
8
0
10
212.5127404
20
-95.670944
11
218.5093716
21
-99.295642
0
LINE
8
0
10
204.1967699
20
-115.0068223
11
183.5261432
21
-108.4735585
0
ARC
8
0
10
111.3644048
20
-104.909206
40
2
50
289.9999981
51
19.9999981
0
ARC
8
0
10
113.9753421
20
-100.3874797
40
2
50
104.5000004
51
199.9999981
0
ARC
8
0
10
127.1024877
20
-92.8609677
40
2
50
284.5000004
51
14.5000004
0
ARC
8
0
10
130.0744735
20
-88.3770672
40
2
50
99.0000023
51
194.5000004
0
ARC
8
0
10
140.5714646
20
-86.7145072
40
2
50
9.0000023
51
99.0000023
0
ARC
8
0
10
145.1479559
20
-90.0395227
40
2
50
189.0000023
51
279.0000023
0
ARC
8
0
10
166.3777812
20
-108.9512813
40
2
50
189.0000023
51
279.0000023
0
ARC
8
0
10
182.9234026
20
-110.3805728
40
2
50
72.4600752
51
99.0000023
0
ARC
8
0
10
203.5940293
20
-116.9138366
40
2
50
43.0000017
51
72.4600752
0
ARC
8
0
10
218.4918685
20
-127.0246965
40
2
50
223.0000017
51
313.0000017
0
ARC
8
0
10
230.9248814
20
-115.4307243
40
2
50
313.0000017
51
43.0000017
0
ARC
8
0
10
217.4747778
20
-101.007254
40
2
50
43.0000017
51
58.8488929
0
ARC
8
0
10
211.4781466
20
-97.382556
40
2
50
58.8488929
51
70.999998
0
ARC
8
0
10
204.7031567
20
-90.8192571
40
2
50
189.0000023
51
250.999998
0
ARC
8
0
10
191.5092193
20
-33.0858286
40
2
50
9.0000023
51
99.0000023
0
ARC
8
0
10
158.5860728
20
-34.2504822
40
2
50
189.0000023
51
279.0000023
0
ARC
8
0
10
154.6229611
20
-34.7981928
40
2
50
9.0000023
51
99.0000023
0
ARC
8
0
10
140.1695864
20
-33.0375219
40
2
50
189.0000023
51
279.0000023
0
ARC
8
0
10
135.9183224
20
-31.7659105
40
2
50
9.0000023
51
99.0000023
0
ARC
8
0
10
118.1399323
20
-34.5817309
40
2
50
99.0000023
51
189.0000023
0
ARC
8
0
10
114.8257212
20
-39.2264382
40
2
50
284.5000004
51
9.0000023
0
ARC
8
0
10
96.9064499
20
-47.9922781
40
2
50
104.5000004
51
194.5000004
0
ARC
8
0
10
93.9929014
20
-52.7021386
40
2
50
289.9999981
51
14.5000004
0
ARC
8
0
10
77.0069104
20
-63.1412448
40
2
50
109.9999981
51
199.9999981
0
ARC
8
0
10
75.9843011
20
-72.0268664
40
2
50
289.9999981
51
19.9999981
0
ARC
8
0
10
64.1966849
20
-80.5739189
40
2
50
109.9999981
51
199.9999981
0
ARC
8
0
10
75.8253697
20
-112.5234681
40
2
50
199.9999981
51
289.9999981
0
ARC
8
0
10
90.349147
20
-111.4939565
40
2
50
19.9999981
51
109.9999981
0
ARC
8
0
10
94.4499376
20
-111.0655686
40
2
50
199.9999981
51
289.9999981
0
ENDSEC
0
EOF