0
SECTION
2
HEADER
9
$INSUNITS
70
4
0
ENDSEC
0
SECTION
2
TABLES
0
TABLE
2
LTYPE
0
LTYPE
72
65
70
64
2
CONTINUOUS
3
______
73
0
40
0
0
ENDTAB
0
TABLE
2
LAYER
0
ENDTAB
0
ENDSEC
0
SECTION
2
ENTITIES
0
LINE
8
0
10
93.2545927
20
-113.6289941
11
113.9278303
21
-106.1045509
0
LINE
8
0
10
113.9278303
20
-106.1045509
11
111.3428872
21
-99.0024782
0
LINE
8
0
10
91.544492
20
-108.930531
11
93.2545927
21
-113.6289941
0
LINE
8
0
10
74.4434849
20
-61.9458999
11
96.384055
21
-53.9601854
0
LINE
8
0
10
74.4434849
20
-61.9458999
11
78.5477266
21
-73.2222114
0
LINE
8
0
10
111.3428872
20
-99.0024782
11
129.539543
21
-94.296503
0
LINE
8
0
10
129.539543
20
-94.296503
11
127.5868844
21
-86.7461324
0
LINE
8
0
10
94.4693946
20
-46.5567428
11
117.085288
21
-40.7078751
0
LINE
8
0
10
94.4693946
20
-46.5567428
11
96.384055
21
-53.9601854
0
LINE
8
0
10
127.5868844
20
-86.7461324
11
142.2339724
21
-84.4262615
0
LINE
8
0
10
138.5070787
20
-35.3257675
11
137.5808302
21
-29.4776649
0
LINE
8
0
10
137.5808302
20
-29.4776649
11
115.8516867
21
-32.9192231
0
LINE
8
0
10
115.8516867
20
-32.9192231
11
117.085288
21
-40.7078751
0
LINE
8
0
10
143.4854481
20
-92.3277683
11
161.2638383
21
-89.5119479
0
LINE
8
0
10
142.2339724
20
-84.4262615
11
143.4854481
21
-92.3277683
0
LINE
8
0
10
156.2854688
20
-32.5099472
11
156.923565
21
-36.5387279
0
LINE
8
0
10
161.5767072
20
-91.4873245
11
161.5865842
21
-91.4857601
0
LINE
8
0
10
161.2638383
20
-89.5119479
11
161.5767072
21
-91.4873245
0
LINE
8
0
10
156.923565
20
-36.5387279
11
193.1717271
21
-30.797583
0
LINE
8
0
10
164.7152734
20
-111.2395269
11
184.7573101
21
-108.0651802
0
LINE
8
0
10
184.6922203
20
-108.2542148
11
185.4332561
21
-108.5093739
0
LINE
8
0
10
185.5451016
20
-108.5478854
11
204.6672535
21
-115.1321703
0
LINE
8
0
10
207.3283505
20
-110.0882963
11
212.3305603
21
-95.5608242
0
LINE
8
0
10
212.3305603
20
-95.5608242
11
202.9157706
21
-92.3190521
0
LINE
8
0
10
184.7573101
20
-108.0651802
11
184.6922203
21
-108.2542148
0
LINE
8
0
10
204.6672535
20
-115.1321703
11
218.3931578
21
-129.8514006
0
LINE
8
0
10
218.3931578
20
-129.8514006
11
233.7515855
21
-115.529435
0
LINE
8
0
10
233.7515855
20
-115.529435
11
218.7476216
21
-99.4396536
0
LINE
8
0
10
218.7476216
20
-99.4396536
11
207.3283505
21
-110.0882963
0
LINE
8
0
10
74.6300248
20
-115.0868936
11
91.544492
21
-108.930531
0
LINE
8
0
10
61.6332594
20
-79.378574
11
74.6300248
21
-115.0868936
0
LINE
8
0
10
78.5477266
20
-73.2222114
11
61.6332594
21
-79.378574
0
LINE
8
0
10
161.5865842
20
-91.4857601
11
164.7152734
21
-111.2395269
0
LINE
8
0
10
156.2854688
20
-32.5099472
11
138.5070787
21
-35.3257675
0
LINE
8
0
10
185.4419435
20
-108.564224
11
185.5451016
21
-108.5478854
0
LINE
8
0
10
202.9157706
20
-92.3190521
11
193.1717271
21
-30.797583
0
LINE
8
0
10
185.4332561
20
-108.5093739
11
185.4419435
21
-108.564224
0
ENDSEC
0
EOF