0
SECTION
2
HEADER
9
$INSUNITS
70
4
0
ENDSEC
0
SECTION
2
TABLES
0
TABLE
2
LTYPE
0
LTYPE
72
65
70
64
2
CONTINUOUS
3
______
73
0
40
0
0
ENDTAB
0
TABLE
2
LAYER
0
ENDTAB
0
ENDSEC
0
SECTION
2
ENTITIES
0
LINE
8
0
10
94.5993558
20
-110.7451404
11
111.0439766
21
-104.7597879
0
LINE
8
0
10
111.0439766
20
-104.7597879
11
105.4006442
21
-89.2548596
0
LINE
8
0
10
105.4006442
20
-89.2548596
11
88.9560234
21
-95.2402121
0
LINE
8
0
10
88.9560234
20
-95.2402121
11
94.5993558
21
-110.7451404
0
LINE
8
0
10
88.7850134
20
-94.7703658
11
105.2296342
21
-88.7850133
0
LINE
8
0
10
105.2296342
20
-88.7850133
11
99.5863018
21
-73.280085
0
LINE
8
0
10
99.5863018
20
-73.280085
11
83.141681
21
-79.2654375
0
LINE
8
0
10
83.141681
20
-79.2654375
11
88.7850134
21
-94.7703658
0
LINE
8
0
10
82.970671
20
-78.7955912
11
99.4152918
21
-72.8102387
0
LINE
8
0
10
99.4152918
20
-72.8102387
11
93.7719594
21
-57.3053104
0
LINE
8
0
10
93.7719594
20
-57.3053104
11
77.3273386
21
-63.2906629
0
LINE
8
0
10
77.3273386
20
-63.2906629
11
82.970671
21
-78.7955912
0
LINE
8
0
10
109.8552721
20
-97.0631759
11
126.7978558
21
-92.6815258
0
LINE
8
0
10
126.7978558
20
-92.6815258
11
122.6665857
21
-76.7070897
0
LINE
8
0
10
122.6665857
20
-76.7070897
11
105.724002
21
-81.0887398
0
LINE
8
0
10
105.724002
20
-81.0887398
11
109.8552721
21
-97.0631759
0
LINE
8
0
10
105.598812
20
-80.604666
11
122.5413957
21
-76.2230159
0
LINE
8
0
10
122.5413957
20
-76.2230159
11
118.4101256
21
-60.2485798
0
LINE
8
0
10
118.4101256
20
-60.2485798
11
101.4675419
21
-64.6302299
0
LINE
8
0
10
101.4675419
20
-64.6302299
11
105.598812
21
-80.604666
0
LINE
8
0
10
101.3423519
20
-64.1461561
11
118.2849356
21
-59.764506
0
LINE
8
0
10
118.2849356
20
-59.764506
11
114.1536655
21
-43.7900699
0
LINE
8
0
10
114.1536655
20
-43.7900699
11
97.2110818
21
-48.17172
0
LINE
8
0
10
97.2110818
20
-48.17172
11
101.3423519
21
-64.1461561
0
LINE
8
0
10
126.3259035
20
-84.6678056
11
143.6104494
21
-81.9302024
0
LINE
8
0
10
143.6104494
20
-81.9302024
11
141.0292807
21
-65.6333448
0
LINE
8
0
10
141.0292807
20
-65.6333448
11
123.7447348
21
-68.370948
0
LINE
8
0
10
123.7447348
20
-68.370948
11
126.3259035
21
-84.6678056
0
LINE
8
0
10
123.6665176
20
-67.8771038
11
140.9510635
21
-65.1395006
0
LINE
8
0
10
140.9510635
20
-65.1395006
11
138.3698948
21
-48.842643
0
LINE
8
0
10
138.3698948
20
-48.842643
11
121.0853489
21
-51.5802462
0
LINE
8
0
10
121.0853489
20
-51.5802462
11
123.6665176
21
-67.8771038
0
LINE
8
0
10
121.0071317
20
-51.086402
11
138.2916776
21
-48.3487988
0
LINE
8
0
10
138.2916776
20
-48.3487988
11
135.7105089
21
-32.0519412
0
LINE
8
0
10
135.7105089
20
-32.0519412
11
118.425963
21
-34.7895444
0
LINE
8
0
10
118.425963
20
-34.7895444
11
121.0071317
21
-51.086402
0
LINE
8
0
10
145.3557694
20
-89.753492
11
162.6403153
21
-87.0158888
0
LINE
8
0
10
162.6403153
20
-87.0158888
11
160.0591466
21
-70.7190312
0
LINE
8
0
10
160.0591466
20
-70.7190312
11
142.7746007
21
-73.4566344
0
LINE
8
0
10
142.7746007
20
-73.4566344
11
145.3557694
21
-89.753492
0
LINE
8
0
10
142.6963835
20
-72.9627902
11
159.9809294
21
-70.225187
0
LINE
8
0
10
159.9809294
20
-70.225187
11
157.3997607
21
-53.9283294
0
LINE
8
0
10
157.3997607
20
-53.9283294
11
140.1152148
21
-56.6659326
0
LINE
8
0
10
140.1152148
20
-56.6659326
11
142.6963835
21
-72.9627902
0
LINE
8
0
10
140.0369976
20
-56.1720884
11
157.3215435
21
-53.4344852
0
LINE
8
0
10
157.3215435
20
-53.4344852
11
154.7403748
21
-37.1376276
0
LINE
8
0
10
154.7403748
20
-37.1376276
11
137.4558289
21
-39.8752308
0
LINE
8
0
10
137.4558289
20
-39.8752308
11
140.0369976
21
-56.1720884
0
LINE
8
0
10
163.4470285
20
-88.9130482
11
180.7315744
21
-86.175445
0
LINE
8
0
10
180.7315744
20
-86.175445
11
178.1504057
21
-69.8785874
0
LINE
8
0
10
178.1504057
20
-69.8785874
11
160.8658598
21
-72.6161906
0
LINE
8
0
10
160.8658598
20
-72.6161906
11
163.4470285
21
-88.9130482
0
LINE
8
0
10
160.7876426
20
-72.1223464
11
178.0721885
21
-69.3847432
0
LINE
8
0
10
178.0721885
20
-69.3847432
11
175.4910198
21
-53.0878856
0
LINE
8
0
10
175.4910198
20
-53.0878856
11
158.2064739
21
-55.8254888
0
LINE
8
0
10
158.2064739
20
-55.8254888
11
160.7876426
21
-72.1223464
0
LINE
8
0
10
158.1282567
20
-55.3316446
11
175.4128026
21
-52.5940414
0
LINE
8
0
10
175.4128026
20
-52.5940414
11
172.8316339
21
-36.2971838
0
LINE
8
0
10
172.8316339
20
-36.2971838
11
155.547088
21
-39.034787
0
LINE
8
0
10
155.547088
20
-39.034787
11
158.1282567
21
-55.3316446
0
LINE
8
0
10
167.5634061
20
-108.5103805
11
184.847952
21
-105.7727773
0
LINE
8
0
10
184.847952
20
-105.7727773
11
182.2667833
21
-89.4759197
0
LINE
8
0
10
182.2667833
20
-89.4759197
11
164.9822374
21
-92.2135229
0
LINE
8
0
10
164.9822374
20
-92.2135229
11
167.5634061
21
-108.5103805
0
LINE
8
0
10
187.5521655
20
-106.8593264
11
204.0987406
21
-112.5567691
0
LINE
8
0
10
204.0987406
20
-112.5567691
11
209.4706151
21
-96.9557126
0
LINE
8
0
10
209.4706151
20
-96.9557126
11
192.92404
21
-91.2582699
0
LINE
8
0
10
192.92404
20
-91.2582699
11
187.5521655
21
-106.8593264
0
LINE
8
0
10
206.569236
20
-113.8726687
11
218.5042073
21
-126.6713585
0
LINE
8
0
10
218.5042073
20
-126.6713585
11
230.5715434
21
-115.4183855
0
LINE
8
0
10
230.5715434
20
-115.4183855
11
218.6365721
21
-102.6196957
0
LINE
8
0
10
218.6365721
20
-102.6196957
11
206.569236
21
-113.8726687
0
LINE
8
0
10
75.9747879
20
-112.2030399
11
92.4194087
21
-106.2176874
0
LINE
8
0
10
92.4194087
20
-106.2176874
11
86.7760763
21
-90.7127591
0
LINE
8
0
10
86.7760763
20
-90.7127591
11
70.3314555
21
-96.6981116
0
LINE
8
0
10
70.3314555
20
-96.6981116
11
75.9747879
21
-112.2030399
0
LINE
8
0
10
70.1604455
20
-96.2282653
11
86.6050663
21
-90.2429128
0
LINE
8
0
10
86.6050663
20
-90.2429128
11
80.9617339
21
-74.7379845
0
LINE
8
0
10
80.9617339
20
-74.7379845
11
64.5171131
21
-80.723337
0
LINE
8
0
10
64.5171131
20
-80.723337
11
70.1604455
21
-96.2282653
0
ENDSEC
0
EOF