M48
; DRILL file {KiCad 9.0.6} date 2025-12-31T17:57:46+0100
; FORMAT={-:-/ absolute / metric / decimal}
; #@! TF.CreationDate,2025-12-31T17:57:46+01:00
; #@! TF.GenerationSoftware,Kicad,Pcbnew,9.0.6
; #@! TF.FileFunction,NonPlated,1,2,NPTH
FMAT,2
METRIC
; #@! TA.AperFunction,NonPlated,NPTH,ComponentDrill
T1C0.500
; #@! TA.AperFunction,NonPlated,NPTH,ComponentDrill
T2C0.900
; #@! TA.AperFunction,NonPlated,NPTH,ComponentDrill
T3C1.900
; #@! TA.AperFunction,NonPlated,NPTH,ComponentDrill
T4C3.000
; #@! TA.AperFunction,NonPlated,NPTH,ComponentDrill
T5C5.000
%
G90
G05
T1
X192.5Y-140.65
X192.5Y-145.15
X192.5Y-143.61
X192.5Y-148.11
X192.5Y-142.87
X192.5Y-147.37
X192.5Y-142.13
X192.5Y-146.63
X192.5Y-141.39
X192.5Y-145.89
X192.5Y-144.35
X245.0Y-140.3
X245.0Y-144.8
X245.0Y-144.8
X245.0Y-143.26
X245.0Y-147.76
X245.0Y-142.52
X245.0Y-147.02
X245.0Y-141.78
X245.0Y-146.28
X245.0Y-141.04
X245.0Y-145.54
X245.0Y-144.0
T2
X190.785Y-128.079
X190.785Y-131.079
X246.746Y-126.737
X246.746Y-129.737
T3
X62.372Y-124.285
X65.615Y-140.972
X73.17Y-122.186
X76.413Y-138.873
X77.751Y-109.071
X80.995Y-125.758
X84.239Y-142.446
X88.549Y-106.972
X91.793Y-123.659
X95.037Y-140.347
X99.017Y-97.671
X100.646Y-114.592
X102.275Y-131.514
X109.966Y-96.616
X111.595Y-113.538
X113.225Y-130.46
X121.288Y-88.121
X121.288Y-122.121
X121.288Y-105.121
X132.288Y-88.121
X132.288Y-122.121
X132.288Y-105.121
X139.288Y-113.121
X139.288Y-130.121
X139.288Y-96.121
X150.288Y-113.121
X150.288Y-130.121
X150.288Y-96.121
X157.288Y-115.121
X157.288Y-132.121
X157.288Y-98.121
X158.288Y-152.121
X168.288Y-115.121
X168.288Y-132.121
X168.288Y-98.121
X169.288Y-152.121
X181.782Y-156.109
X191.494Y-161.273
X201.382Y-169.85
X207.533Y-178.97
X229.934Y-178.997
X236.085Y-169.877
X245.972Y-161.3
X255.685Y-156.136
X268.178Y-152.148
X269.178Y-98.148
X269.178Y-132.148
X269.178Y-115.148
X279.178Y-152.148
X280.178Y-98.148
X280.178Y-132.148
X280.178Y-115.148
X287.178Y-113.148
X287.178Y-96.148
X287.178Y-130.148
X298.178Y-113.148
X298.178Y-96.148
X298.178Y-130.148
X305.178Y-122.148
X305.178Y-88.148
X305.178Y-105.148
X316.178Y-122.148
X316.178Y-88.148
X316.178Y-105.148
X324.242Y-130.486
X325.871Y-113.565
X327.5Y-96.643
X335.191Y-131.541
X336.82Y-114.619
X338.45Y-97.697
X342.43Y-140.374
X345.673Y-123.686
X348.917Y-106.998
X353.228Y-142.473
X356.471Y-125.785
X359.715Y-109.097
X361.053Y-138.9
X364.297Y-122.212
X371.851Y-140.999
X375.095Y-124.311
T4
X66.635Y-117.395
X69.879Y-134.082
X71.963Y-118.6
X75.207Y-135.288
X82.015Y-102.18
X85.259Y-118.868
X87.343Y-103.386
X88.502Y-135.556
X90.587Y-120.074
X93.83Y-136.761
X103.921Y-91.221
X105.55Y-108.142
X107.18Y-125.064
X109.109Y-92.931
X110.738Y-109.853
X112.368Y-126.775
X126.788Y-82.171
X126.788Y-116.171
X126.788Y-99.171
X131.788Y-84.371
X131.788Y-118.371
X131.788Y-101.371
X144.788Y-107.171
X144.788Y-124.171
X144.788Y-90.171
X149.788Y-109.371
X149.788Y-126.371
X149.788Y-92.371
X162.788Y-109.171
X162.788Y-126.171
X162.788Y-92.171
X163.788Y-146.171
X167.788Y-111.371
X167.788Y-128.371
X167.788Y-94.371
X168.788Y-148.371
X189.431Y-153.438
X192.813Y-157.727
X209.39Y-171.083
X210.362Y-176.458
X228.076Y-171.11
X232.696Y-168.195
X248.035Y-153.464
X253.483Y-153.059
X273.678Y-146.198
X274.678Y-92.198
X274.678Y-126.198
X274.678Y-109.198
X278.678Y-148.398
X279.678Y-94.398
X279.678Y-128.398
X279.678Y-111.398
X292.678Y-107.198
X292.678Y-90.198
X292.678Y-124.198
X297.678Y-109.398
X297.678Y-92.398
X297.678Y-126.398
X310.678Y-116.198
X310.678Y-82.198
X310.678Y-99.198
X315.678Y-118.398
X315.678Y-84.398
X315.678Y-101.398
X330.287Y-125.091
X331.916Y-108.169
X333.545Y-91.247
X335.053Y-127.76
X336.682Y-110.838
X338.311Y-93.917
X348.964Y-135.582
X352.208Y-118.895
X353.452Y-138.696
X355.451Y-102.207
X356.696Y-122.008
X359.94Y-105.321
X367.587Y-134.109
X370.831Y-117.421
X372.076Y-137.222
X375.319Y-120.535
T5
X67.771Y-123.235
X71.014Y-139.923
X83.15Y-108.021
X86.394Y-124.709
X89.638Y-141.396
X104.491Y-97.143
X106.121Y-114.065
X107.75Y-130.987
X126.788Y-88.121
X126.788Y-122.121
X126.788Y-105.121
X144.788Y-113.121
X144.788Y-130.121
X144.788Y-96.121
X162.788Y-115.121
X162.788Y-132.121
X162.788Y-98.121
X163.788Y-152.121
X186.638Y-158.691
X204.457Y-174.41
X233.009Y-174.437
X250.828Y-158.718
X273.678Y-152.148
X274.678Y-98.148
X274.678Y-132.148
X274.678Y-115.148
X292.678Y-113.148
X292.678Y-96.148
X292.678Y-130.148
X310.678Y-122.148
X310.678Y-88.148
X310.678Y-105.148
X329.716Y-131.013
X331.346Y-114.092
X332.975Y-97.17
X347.829Y-141.423
X351.072Y-124.735
X354.316Y-108.048
X366.452Y-139.95
X369.696Y-123.262
M30
