%TF.GenerationSoftware,KiCad,Pcbnew,9.0.6*%
%TF.CreationDate,2025-12-31T17:57:57+01:00*%
%TF.ProjectId,right,72696768-742e-46b6-9963-61645f706362,v1.0.0*%
%TF.SameCoordinates,Original*%
%TF.FileFunction,Legend,Bot*%
%TF.FilePolarity,Positive*%
%FSLAX46Y46*%
G04 Gerber Fmt 4.6, Leading zero omitted, Abs format (unit mm)*
G04 Created by KiCad (PCBNEW 9.0.6) date 2025-12-31 17:57:57*
%MOMM*%
%LPD*%
G01*
G04 APERTURE LIST*
%ADD10C,0.100000*%
%ADD11C,0.150000*%
%ADD12C,0.127000*%
%ADD13C,0.120000*%
G04 APERTURE END LIST*
D10*
X185789204Y-118513100D02*
X185955870Y-118275005D01*
X186074918Y-118513100D02*
X186074918Y-118013100D01*
X186074918Y-118013100D02*
X185884442Y-118013100D01*
X185884442Y-118013100D02*
X185836823Y-118036910D01*
X185836823Y-118036910D02*
X185813013Y-118060719D01*
X185813013Y-118060719D02*
X185789204Y-118108338D01*
X185789204Y-118108338D02*
X185789204Y-118179767D01*
X185789204Y-118179767D02*
X185813013Y-118227386D01*
X185813013Y-118227386D02*
X185836823Y-118251195D01*
X185836823Y-118251195D02*
X185884442Y-118275005D01*
X185884442Y-118275005D02*
X186074918Y-118275005D01*
X185574918Y-118251195D02*
X185408251Y-118251195D01*
X185336823Y-118513100D02*
X185574918Y-118513100D01*
X185574918Y-118513100D02*
X185574918Y-118013100D01*
X185574918Y-118013100D02*
X185336823Y-118013100D01*
X185241585Y-118560719D02*
X184860632Y-118560719D01*
X184455871Y-118465481D02*
X184479680Y-118489291D01*
X184479680Y-118489291D02*
X184551109Y-118513100D01*
X184551109Y-118513100D02*
X184598728Y-118513100D01*
X184598728Y-118513100D02*
X184670156Y-118489291D01*
X184670156Y-118489291D02*
X184717775Y-118441671D01*
X184717775Y-118441671D02*
X184741585Y-118394052D01*
X184741585Y-118394052D02*
X184765394Y-118298814D01*
X184765394Y-118298814D02*
X184765394Y-118227386D01*
X184765394Y-118227386D02*
X184741585Y-118132148D01*
X184741585Y-118132148D02*
X184717775Y-118084529D01*
X184717775Y-118084529D02*
X184670156Y-118036910D01*
X184670156Y-118036910D02*
X184598728Y-118013100D01*
X184598728Y-118013100D02*
X184551109Y-118013100D01*
X184551109Y-118013100D02*
X184479680Y-118036910D01*
X184479680Y-118036910D02*
X184455871Y-118060719D01*
X183789216Y-118513095D02*
X183955882Y-118275000D01*
X184074930Y-118513095D02*
X184074930Y-118013095D01*
X184074930Y-118013095D02*
X183884454Y-118013095D01*
X183884454Y-118013095D02*
X183836835Y-118036905D01*
X183836835Y-118036905D02*
X183813025Y-118060714D01*
X183813025Y-118060714D02*
X183789216Y-118108333D01*
X183789216Y-118108333D02*
X183789216Y-118179762D01*
X183789216Y-118179762D02*
X183813025Y-118227381D01*
X183813025Y-118227381D02*
X183836835Y-118251190D01*
X183836835Y-118251190D02*
X183884454Y-118275000D01*
X183884454Y-118275000D02*
X184074930Y-118275000D01*
X183574930Y-118251190D02*
X183408263Y-118251190D01*
X183336835Y-118513095D02*
X183574930Y-118513095D01*
X183574930Y-118513095D02*
X183574930Y-118013095D01*
X183574930Y-118013095D02*
X183336835Y-118013095D01*
X183241597Y-118560714D02*
X182860644Y-118560714D01*
X182765406Y-118370238D02*
X182527311Y-118370238D01*
X182813025Y-118513095D02*
X182646359Y-118013095D01*
X182646359Y-118013095D02*
X182479692Y-118513095D01*
D11*
X191712134Y-124034315D02*
X191521658Y-124034315D01*
X191521658Y-124034315D02*
X191426420Y-124081934D01*
X191426420Y-124081934D02*
X191331182Y-124177172D01*
X191331182Y-124177172D02*
X191283563Y-124367648D01*
X191283563Y-124367648D02*
X191283563Y-124700981D01*
X191283563Y-124700981D02*
X191331182Y-124891457D01*
X191331182Y-124891457D02*
X191426420Y-124986696D01*
X191426420Y-124986696D02*
X191521658Y-125034315D01*
X191521658Y-125034315D02*
X191712134Y-125034315D01*
X191712134Y-125034315D02*
X191807372Y-124986696D01*
X191807372Y-124986696D02*
X191902610Y-124891457D01*
X191902610Y-124891457D02*
X191950229Y-124700981D01*
X191950229Y-124700981D02*
X191950229Y-124367648D01*
X191950229Y-124367648D02*
X191902610Y-124177172D01*
X191902610Y-124177172D02*
X191807372Y-124081934D01*
X191807372Y-124081934D02*
X191712134Y-124034315D01*
X190521658Y-124510505D02*
X190854991Y-124510505D01*
X190854991Y-125034315D02*
X190854991Y-124034315D01*
X190854991Y-124034315D02*
X190378801Y-124034315D01*
X189664515Y-124510505D02*
X189997848Y-124510505D01*
X189997848Y-125034315D02*
X189997848Y-124034315D01*
X189997848Y-124034315D02*
X189521658Y-124034315D01*
X191378799Y-134034315D02*
X191188323Y-134034315D01*
X191188323Y-134034315D02*
X191093085Y-134081934D01*
X191093085Y-134081934D02*
X190997847Y-134177172D01*
X190997847Y-134177172D02*
X190950228Y-134367648D01*
X190950228Y-134367648D02*
X190950228Y-134700981D01*
X190950228Y-134700981D02*
X190997847Y-134891457D01*
X190997847Y-134891457D02*
X191093085Y-134986696D01*
X191093085Y-134986696D02*
X191188323Y-135034315D01*
X191188323Y-135034315D02*
X191378799Y-135034315D01*
X191378799Y-135034315D02*
X191474037Y-134986696D01*
X191474037Y-134986696D02*
X191569275Y-134891457D01*
X191569275Y-134891457D02*
X191616894Y-134700981D01*
X191616894Y-134700981D02*
X191616894Y-134367648D01*
X191616894Y-134367648D02*
X191569275Y-134177172D01*
X191569275Y-134177172D02*
X191474037Y-134081934D01*
X191474037Y-134081934D02*
X191378799Y-134034315D01*
X190521656Y-135034315D02*
X190521656Y-134034315D01*
X190521656Y-134034315D02*
X189950228Y-135034315D01*
X189950228Y-135034315D02*
X189950228Y-134034315D01*
X247723435Y-122691806D02*
X247532959Y-122691806D01*
X247532959Y-122691806D02*
X247437721Y-122739425D01*
X247437721Y-122739425D02*
X247342483Y-122834663D01*
X247342483Y-122834663D02*
X247294864Y-123025139D01*
X247294864Y-123025139D02*
X247294864Y-123358472D01*
X247294864Y-123358472D02*
X247342483Y-123548948D01*
X247342483Y-123548948D02*
X247437721Y-123644187D01*
X247437721Y-123644187D02*
X247532959Y-123691806D01*
X247532959Y-123691806D02*
X247723435Y-123691806D01*
X247723435Y-123691806D02*
X247818673Y-123644187D01*
X247818673Y-123644187D02*
X247913911Y-123548948D01*
X247913911Y-123548948D02*
X247961530Y-123358472D01*
X247961530Y-123358472D02*
X247961530Y-123025139D01*
X247961530Y-123025139D02*
X247913911Y-122834663D01*
X247913911Y-122834663D02*
X247818673Y-122739425D01*
X247818673Y-122739425D02*
X247723435Y-122691806D01*
X246532959Y-123167996D02*
X246866292Y-123167996D01*
X246866292Y-123691806D02*
X246866292Y-122691806D01*
X246866292Y-122691806D02*
X246390102Y-122691806D01*
X245675816Y-123167996D02*
X246009149Y-123167996D01*
X246009149Y-123691806D02*
X246009149Y-122691806D01*
X246009149Y-122691806D02*
X245532959Y-122691806D01*
X247390094Y-132691804D02*
X247199618Y-132691804D01*
X247199618Y-132691804D02*
X247104380Y-132739423D01*
X247104380Y-132739423D02*
X247009142Y-132834661D01*
X247009142Y-132834661D02*
X246961523Y-133025137D01*
X246961523Y-133025137D02*
X246961523Y-133358470D01*
X246961523Y-133358470D02*
X247009142Y-133548946D01*
X247009142Y-133548946D02*
X247104380Y-133644185D01*
X247104380Y-133644185D02*
X247199618Y-133691804D01*
X247199618Y-133691804D02*
X247390094Y-133691804D01*
X247390094Y-133691804D02*
X247485332Y-133644185D01*
X247485332Y-133644185D02*
X247580570Y-133548946D01*
X247580570Y-133548946D02*
X247628189Y-133358470D01*
X247628189Y-133358470D02*
X247628189Y-133025137D01*
X247628189Y-133025137D02*
X247580570Y-132834661D01*
X247580570Y-132834661D02*
X247485332Y-132739423D01*
X247485332Y-132739423D02*
X247390094Y-132691804D01*
X246532951Y-133691804D02*
X246532951Y-132691804D01*
X246532951Y-132691804D02*
X245961523Y-133691804D01*
X245961523Y-133691804D02*
X245961523Y-132691804D01*
D10*
%TO.C,D1*%
X92800363Y-145875277D02*
X93193017Y-145798952D01*
X93193017Y-145798952D02*
X93088063Y-145259063D01*
X93193017Y-145798952D02*
X93297952Y-146338849D01*
X93193017Y-145798952D02*
X93705666Y-145291819D01*
X93705666Y-145291819D02*
X93858309Y-146077124D01*
X93781989Y-145684472D02*
X94272801Y-145589067D01*
X93858309Y-146077124D02*
X93193017Y-145798952D01*
%TO.C,D2*%
X89556606Y-129187620D02*
X89949260Y-129111295D01*
X89949260Y-129111295D02*
X89844306Y-128571406D01*
X89949260Y-129111295D02*
X90054195Y-129651192D01*
X89949260Y-129111295D02*
X90461909Y-128604162D01*
X90461909Y-128604162D02*
X90614552Y-129389467D01*
X90538232Y-128996815D02*
X91029044Y-128901410D01*
X90614552Y-129389467D02*
X89949260Y-129111295D01*
D11*
%TO.C,S3*%
X80113078Y-100258012D02*
X79717674Y-100844229D01*
X80971724Y-104675328D02*
X80385502Y-104279919D01*
X83057963Y-99685580D02*
X80113078Y-100258012D01*
X83229467Y-104236469D02*
X80971724Y-104675328D01*
X83644183Y-100080990D02*
X83057963Y-99685580D01*
X83644183Y-100080990D02*
X83819726Y-100984087D01*
X84440840Y-101454212D02*
X88838526Y-100599385D01*
X85318011Y-106071675D02*
X85184439Y-105384537D01*
X88838526Y-100599385D02*
X88953016Y-101188362D01*
X89639924Y-104722221D02*
X89735332Y-105213030D01*
X89735332Y-105213030D02*
X85318011Y-106071675D01*
X83229467Y-104236469D02*
G75*
G02*
X85180628Y-105364905I411370J-1539786D01*
G01*
X84440840Y-101454212D02*
G75*
G02*
X83819722Y-100984088I-75496J545622D01*
G01*
D10*
%TO.C,D4*%
X110468872Y-135748163D02*
X110867029Y-135709825D01*
X110867029Y-135709825D02*
X110814312Y-135162358D01*
X110867029Y-135709825D02*
X110919741Y-136257289D01*
X110867029Y-135709825D02*
X111425931Y-135254157D01*
X111425931Y-135254157D02*
X111502601Y-136050473D01*
X111464266Y-135652316D02*
X111961964Y-135604391D01*
X111502601Y-136050473D02*
X110867029Y-135709825D01*
D11*
%TO.C,S17*%
X187050424Y-154719949D02*
X186843690Y-154043746D01*
X189081207Y-155799738D02*
X187050424Y-154719949D01*
X189163048Y-150746687D02*
X188486837Y-150953427D01*
X189549379Y-158540323D02*
X189878005Y-157922262D01*
X191773551Y-154399859D02*
X195729159Y-156503094D01*
X191811885Y-152155101D02*
X189163048Y-150746687D01*
X192018634Y-152831312D02*
X191586718Y-153643623D01*
X192018634Y-152831312D02*
X191811885Y-152155101D01*
X193522645Y-160652946D02*
X189549379Y-158540323D01*
X193757378Y-160211470D02*
X193522645Y-160652946D01*
X195729159Y-156503094D02*
X195447477Y-157032861D01*
X189081207Y-155799738D02*
G75*
G02*
X189887399Y-157904605I-649329J-1455526D01*
G01*
X191773551Y-154399859D02*
G75*
G02*
X191586718Y-153643623I284702J471535D01*
G01*
%TO.C,S8*%
X125287923Y-96921324D02*
X124787928Y-97421327D01*
X125287926Y-101421322D02*
X124787924Y-100921322D01*
X127587928Y-101421317D02*
X125287926Y-101421322D01*
X128287929Y-96921323D02*
X125287923Y-96921324D01*
X128787928Y-97421321D02*
X128287929Y-96921323D01*
X128787928Y-97421321D02*
X128787928Y-98341321D01*
X129287928Y-103621320D02*
X129287926Y-102921323D01*
X129307926Y-98921323D02*
X133787925Y-98921321D01*
X133787925Y-98921321D02*
X133787933Y-99521324D01*
X133787927Y-103121319D02*
X133787927Y-103621319D01*
X133787927Y-103621319D02*
X129287928Y-103621320D01*
X127587928Y-101421317D02*
G75*
G02*
X129287931Y-102901322I109999J-1590004D01*
G01*
X129307926Y-98921323D02*
G75*
G02*
X128787925Y-98341321I30001J550002D01*
G01*
%TO.C,S2*%
X83356829Y-116945681D02*
X82961425Y-117531898D01*
X84215475Y-121362997D02*
X83629253Y-120967588D01*
X86301714Y-116373249D02*
X83356829Y-116945681D01*
X86473218Y-120924138D02*
X84215475Y-121362997D01*
X86887934Y-116768659D02*
X86301714Y-116373249D01*
X86887934Y-116768659D02*
X87063477Y-117671756D01*
X87684591Y-118141881D02*
X92082277Y-117287054D01*
X88561762Y-122759344D02*
X88428190Y-122072206D01*
X92082277Y-117287054D02*
X92196767Y-117876031D01*
X92883675Y-121409890D02*
X92979083Y-121900699D01*
X92979083Y-121900699D02*
X88561762Y-122759344D01*
X86473218Y-120924138D02*
G75*
G02*
X88424379Y-122052574I411370J-1539786D01*
G01*
X87684591Y-118141881D02*
G75*
G02*
X87063473Y-117671757I-75496J545622D01*
G01*
%TO.C,S6*%
X102212217Y-89124893D02*
X101762445Y-89670514D01*
X102643529Y-93604173D02*
X102097905Y-93154393D01*
X104932936Y-93383723D02*
X102643529Y-93604173D01*
X105198408Y-88837354D02*
X102212217Y-89124893D01*
X105744031Y-89287126D02*
X105198408Y-88837354D01*
X105744031Y-89287126D02*
X105832207Y-90202895D01*
X106405405Y-90730383D02*
X110864777Y-90300993D01*
X106835973Y-95410659D02*
X106768879Y-94713885D01*
X110864777Y-90300993D02*
X110922288Y-90898231D01*
X111267327Y-94481661D02*
X111315254Y-94979353D01*
X111315254Y-94979353D02*
X106835973Y-95410659D01*
X104932936Y-93383723D02*
G75*
G02*
X106766964Y-94693973I261887J-1572142D01*
G01*
X106405405Y-90730383D02*
G75*
G02*
X105832206Y-90202895I-22854J550345D01*
G01*
%TO.C,S15*%
X161287936Y-89921321D02*
X160787941Y-90421324D01*
X161287939Y-94421319D02*
X160787937Y-93921319D01*
X163587941Y-94421314D02*
X161287939Y-94421319D01*
X164287942Y-89921320D02*
X161287936Y-89921321D01*
X164787941Y-90421318D02*
X164287942Y-89921320D01*
X164787941Y-90421318D02*
X164787941Y-91341318D01*
X165287941Y-96621317D02*
X165287939Y-95921320D01*
X165307939Y-91921320D02*
X169787938Y-91921318D01*
X169787938Y-91921318D02*
X169787946Y-92521321D01*
X169787940Y-96121316D02*
X169787940Y-96621316D01*
X169787940Y-96621316D02*
X165287941Y-96621317D01*
X163587941Y-94421314D02*
G75*
G02*
X165287944Y-95901319I109999J-1590004D01*
G01*
X165307939Y-91921320D02*
G75*
G02*
X164787938Y-91341318I30001J550002D01*
G01*
D10*
%TO.C,D10*%
X147037924Y-135121307D02*
X147437926Y-135121309D01*
X147437926Y-135121309D02*
X147437921Y-135671305D01*
X147437926Y-135121309D02*
X147437922Y-134571309D01*
X147437926Y-135121309D02*
X148037928Y-134721307D01*
X148037921Y-135521304D02*
X147437926Y-135121309D01*
X148037925Y-135121307D02*
X148537926Y-135121307D01*
X148037928Y-134721307D02*
X148037921Y-135521304D01*
%TO.C,D9*%
X129037918Y-93121319D02*
X129437920Y-93121321D01*
X129437920Y-93121321D02*
X129437915Y-93671317D01*
X129437920Y-93121321D02*
X129437916Y-92571321D01*
X129437920Y-93121321D02*
X130037922Y-92721319D01*
X130037915Y-93521316D02*
X129437920Y-93121321D01*
X130037919Y-93121319D02*
X130537920Y-93121319D01*
X130037922Y-92721319D02*
X130037915Y-93521316D01*
%TO.C,D7*%
X129037928Y-127121307D02*
X129437930Y-127121309D01*
X129437930Y-127121309D02*
X129437925Y-127671305D01*
X129437930Y-127121309D02*
X129437926Y-126571309D01*
X129437930Y-127121309D02*
X130037932Y-126721307D01*
X130037925Y-127521304D02*
X129437930Y-127121309D01*
X130037929Y-127121307D02*
X130537930Y-127121307D01*
X130037932Y-126721307D02*
X130037925Y-127521304D01*
%TO.C,D8*%
X129037916Y-110121310D02*
X129437918Y-110121312D01*
X129437918Y-110121312D02*
X129437913Y-110671308D01*
X129437918Y-110121312D02*
X129437914Y-109571312D01*
X129437918Y-110121312D02*
X130037920Y-109721310D01*
X130037913Y-110521307D02*
X129437918Y-110121312D01*
X130037917Y-110121310D02*
X130537918Y-110121310D01*
X130037920Y-109721310D02*
X130037913Y-110521307D01*
D11*
%TO.C,S16*%
X162287916Y-143921324D02*
X161787921Y-144421327D01*
X162287919Y-148421322D02*
X161787917Y-147921322D01*
X164587921Y-148421317D02*
X162287919Y-148421322D01*
X165287922Y-143921323D02*
X162287916Y-143921324D01*
X165787921Y-144421321D02*
X165287922Y-143921323D01*
X165787921Y-144421321D02*
X165787921Y-145341321D01*
X166287921Y-150621320D02*
X166287919Y-149921323D01*
X166307919Y-145921323D02*
X170787918Y-145921321D01*
X170787918Y-145921321D02*
X170787926Y-146521324D01*
X170787920Y-150121319D02*
X170787920Y-150621319D01*
X170787920Y-150621319D02*
X166287921Y-150621320D01*
X164587921Y-148421317D02*
G75*
G02*
X166287924Y-149901322I109999J-1590004D01*
G01*
X166307919Y-145921323D02*
G75*
G02*
X165787918Y-145341321I30001J550002D01*
G01*
%TO.C,S18*%
X206685827Y-171097609D02*
X206820752Y-170403495D01*
X207098719Y-175643986D02*
X207679048Y-175252554D01*
X207971973Y-173004399D02*
X206685827Y-171097609D01*
X209615086Y-179374653D02*
X207098719Y-175643986D01*
X210029605Y-179095059D02*
X209615086Y-179374653D01*
X210416502Y-168581245D02*
X209722383Y-168446318D01*
X211006382Y-173032360D02*
X213511563Y-176746449D01*
X211959153Y-171762471D02*
X211196441Y-172276930D01*
X211959153Y-171762471D02*
X212094077Y-171068356D01*
X212094077Y-171068356D02*
X210416502Y-168581245D01*
X213511563Y-176746449D02*
X213014138Y-177081961D01*
X207971973Y-173004399D02*
G75*
G02*
X207695624Y-175241364I-1256636J-980311D01*
G01*
X211006382Y-173032360D02*
G75*
G02*
X211196442Y-172276932I472744J282684D01*
G01*
%TO.C,S9*%
X125287921Y-79921310D02*
X124787926Y-80421313D01*
X125287924Y-84421308D02*
X124787922Y-83921308D01*
X127587926Y-84421303D02*
X125287924Y-84421308D01*
X128287927Y-79921309D02*
X125287921Y-79921310D01*
X128787926Y-80421307D02*
X128287927Y-79921309D01*
X128787926Y-80421307D02*
X128787926Y-81341307D01*
X129287926Y-86621306D02*
X129287924Y-85921309D01*
X129307924Y-81921309D02*
X133787923Y-81921307D01*
X133787923Y-81921307D02*
X133787931Y-82521310D01*
X133787925Y-86121305D02*
X133787925Y-86621305D01*
X133787925Y-86621305D02*
X129287926Y-86621306D01*
X127587926Y-84421303D02*
G75*
G02*
X129287929Y-85901308I109999J-1590004D01*
G01*
X129307924Y-81921309D02*
G75*
G02*
X128787923Y-81341307I30001J550002D01*
G01*
D10*
%TO.C,D15*%
X165037922Y-103121319D02*
X165437924Y-103121321D01*
X165437924Y-103121321D02*
X165437919Y-103671317D01*
X165437924Y-103121321D02*
X165437920Y-102571321D01*
X165437924Y-103121321D02*
X166037926Y-102721319D01*
X166037919Y-103521316D02*
X165437924Y-103121321D01*
X166037923Y-103121319D02*
X166537924Y-103121319D01*
X166037926Y-102721319D02*
X166037919Y-103521316D01*
D11*
%TO.C,S11*%
X143287921Y-104921315D02*
X142787926Y-105421318D01*
X143287924Y-109421313D02*
X142787922Y-108921313D01*
X145587926Y-109421308D02*
X143287924Y-109421313D01*
X146287927Y-104921314D02*
X143287921Y-104921315D01*
X146787926Y-105421312D02*
X146287927Y-104921314D01*
X146787926Y-105421312D02*
X146787926Y-106341312D01*
X147287926Y-111621311D02*
X147287924Y-110921314D01*
X147307924Y-106921314D02*
X151787923Y-106921312D01*
X151787923Y-106921312D02*
X151787931Y-107521315D01*
X151787925Y-111121310D02*
X151787925Y-111621310D01*
X151787925Y-111621310D02*
X147287926Y-111621311D01*
X145587926Y-109421308D02*
G75*
G02*
X147287929Y-110901313I109999J-1590004D01*
G01*
X147307924Y-106921314D02*
G75*
G02*
X146787923Y-106341312I30001J550002D01*
G01*
%TO.C,S7*%
X125287921Y-113921315D02*
X124787926Y-114421318D01*
X125287924Y-118421313D02*
X124787922Y-117921313D01*
X127587926Y-118421308D02*
X125287924Y-118421313D01*
X128287927Y-113921314D02*
X125287921Y-113921315D01*
X128787926Y-114421312D02*
X128287927Y-113921314D01*
X128787926Y-114421312D02*
X128787926Y-115341312D01*
X129287926Y-120621311D02*
X129287924Y-119921314D01*
X129307924Y-115921314D02*
X133787923Y-115921312D01*
X133787923Y-115921312D02*
X133787931Y-116521315D01*
X133787925Y-120121310D02*
X133787925Y-120621310D01*
X133787925Y-120621310D02*
X129287926Y-120621311D01*
X127587926Y-118421308D02*
G75*
G02*
X129287929Y-119901313I109999J-1590004D01*
G01*
X129307924Y-115921314D02*
G75*
G02*
X128787923Y-115341312I30001J550002D01*
G01*
D10*
%TO.C,D12*%
X147037925Y-101121317D02*
X147437927Y-101121319D01*
X147437927Y-101121319D02*
X147437922Y-101671315D01*
X147437927Y-101121319D02*
X147437923Y-100571319D01*
X147437927Y-101121319D02*
X148037929Y-100721317D01*
X148037922Y-101521314D02*
X147437927Y-101121319D01*
X148037926Y-101121317D02*
X148537927Y-101121317D01*
X148037929Y-100721317D02*
X148037922Y-101521314D01*
D11*
%TO.C,S4*%
X105470972Y-122968357D02*
X105021200Y-123513978D01*
X105902284Y-127447637D02*
X105356660Y-126997857D01*
X108191691Y-127227187D02*
X105902284Y-127447637D01*
X108457163Y-122680818D02*
X105470972Y-122968357D01*
X109002786Y-123130590D02*
X108457163Y-122680818D01*
X109002786Y-123130590D02*
X109090962Y-124046359D01*
X109664160Y-124573847D02*
X114123532Y-124144457D01*
X110094728Y-129254123D02*
X110027634Y-128557349D01*
X114123532Y-124144457D02*
X114181043Y-124741695D01*
X114526082Y-128325125D02*
X114574009Y-128822817D01*
X114574009Y-128822817D02*
X110094728Y-129254123D01*
X108191691Y-127227187D02*
G75*
G02*
X110025719Y-128537437I261887J-1572142D01*
G01*
X109664160Y-124573847D02*
G75*
G02*
X109090961Y-124046359I-22854J550345D01*
G01*
%TO.C,S19*%
X67977250Y-132159770D02*
X67581846Y-132745987D01*
X68835896Y-136577086D02*
X68249674Y-136181677D01*
X70922135Y-131587338D02*
X67977250Y-132159770D01*
X71093639Y-136138227D02*
X68835896Y-136577086D01*
X71508355Y-131982748D02*
X70922135Y-131587338D01*
X71508355Y-131982748D02*
X71683898Y-132885845D01*
X72305012Y-133355970D02*
X76702698Y-132501143D01*
X73182183Y-137973433D02*
X73048611Y-137286295D01*
X76702698Y-132501143D02*
X76817188Y-133090120D01*
X77504096Y-136623979D02*
X77599504Y-137114788D01*
X77599504Y-137114788D02*
X73182183Y-137973433D01*
X71093639Y-136138227D02*
G75*
G02*
X73044800Y-137266663I411370J-1539786D01*
G01*
X72305012Y-133355970D02*
G75*
G02*
X71683894Y-132885846I-75496J545622D01*
G01*
D10*
%TO.C,RST1*%
X188967039Y-120134056D02*
X188967040Y-120384058D01*
X188967042Y-115934056D02*
X188967038Y-115684059D01*
X189217039Y-115684059D02*
X188967038Y-115684059D01*
X189217040Y-120384057D02*
X188967040Y-120384058D01*
X192217042Y-115684055D02*
X192467042Y-115684054D01*
X192217043Y-120384053D02*
X192467044Y-120384053D01*
X192467040Y-120134056D02*
X192467044Y-120384053D01*
X192467043Y-115934056D02*
X192467042Y-115684054D01*
D12*
%TO.C,U?*%
X173859765Y-106579487D02*
X173859764Y-89579488D01*
X178259765Y-87579487D02*
X175859763Y-87579487D01*
X178259766Y-86179485D02*
X178259765Y-87579487D01*
X187259764Y-86179488D02*
X178259766Y-86179485D01*
X187259767Y-87579488D02*
X187259764Y-86179488D01*
X189659763Y-87579487D02*
X187259767Y-87579488D01*
X189659763Y-108579483D02*
X175859763Y-108579485D01*
X191659762Y-89579488D02*
X191659762Y-106579484D01*
X173859764Y-89579488D02*
G75*
G02*
X175859760Y-87579487I2050002J-50001D01*
G01*
X175859763Y-108579485D02*
G75*
G02*
X173859765Y-106579487I50000J2049998D01*
G01*
X189659762Y-87579487D02*
G75*
G02*
X191659762Y-89579488I-49999J-2049999D01*
G01*
X191659762Y-106579484D02*
G75*
G02*
X189659763Y-108579485I-2049999J49998D01*
G01*
D13*
%TO.C,PWR1*%
X189334751Y-127979490D02*
X189334749Y-129679498D01*
X189334754Y-130979494D02*
X189334758Y-131179495D01*
X190384752Y-126129496D02*
X191174752Y-126129498D01*
X191174755Y-133029492D02*
X190384755Y-133029499D01*
X192184754Y-126729496D02*
X192184751Y-132429492D01*
D11*
%TO.C,S5*%
X103841599Y-106046626D02*
X103391827Y-106592247D01*
X104272911Y-110525906D02*
X103727287Y-110076126D01*
X106562318Y-110305456D02*
X104272911Y-110525906D01*
X106827790Y-105759087D02*
X103841599Y-106046626D01*
X107373413Y-106208859D02*
X106827790Y-105759087D01*
X107373413Y-106208859D02*
X107461589Y-107124628D01*
X108034787Y-107652116D02*
X112494159Y-107222726D01*
X108465355Y-112332392D02*
X108398261Y-111635618D01*
X112494159Y-107222726D02*
X112551670Y-107819964D01*
X112896709Y-111403394D02*
X112944636Y-111901086D01*
X112944636Y-111901086D02*
X108465355Y-112332392D01*
X106562318Y-110305456D02*
G75*
G02*
X108396346Y-111615706I261887J-1572142D01*
G01*
X108034787Y-107652116D02*
G75*
G02*
X107461588Y-107124628I-22854J550345D01*
G01*
D10*
%TO.C,D11*%
X147037920Y-118121315D02*
X147437922Y-118121317D01*
X147437922Y-118121317D02*
X147437917Y-118671313D01*
X147437922Y-118121317D02*
X147437918Y-117571317D01*
X147437922Y-118121317D02*
X148037924Y-117721315D01*
X148037917Y-118521312D02*
X147437922Y-118121317D01*
X148037921Y-118121315D02*
X148537922Y-118121315D01*
X148037924Y-117721315D02*
X148037917Y-118521312D01*
%TO.C,D6*%
X107210126Y-101904686D02*
X107608283Y-101866348D01*
X107608283Y-101866348D02*
X107555566Y-101318881D01*
X107608283Y-101866348D02*
X107660995Y-102413812D01*
X107608283Y-101866348D02*
X108167185Y-101410680D01*
X108167185Y-101410680D02*
X108243855Y-102206996D01*
X108205520Y-101808839D02*
X108703218Y-101760914D01*
X108243855Y-102206996D02*
X107608283Y-101866348D01*
%TO.C,JST1*%
X179184744Y-114079478D02*
X179184747Y-113079482D01*
X179184745Y-111079486D02*
X179184742Y-112079488D01*
X179684746Y-111579478D02*
X178684744Y-111579483D01*
D13*
X180224741Y-114719482D02*
X180224744Y-115639486D01*
X180224744Y-115639486D02*
X181224749Y-115639481D01*
X180224746Y-109519481D02*
X181224748Y-109519484D01*
X180224749Y-110439484D02*
X180224746Y-109519481D01*
X188044743Y-114719483D02*
X188044744Y-115639485D01*
X188044744Y-115639485D02*
X187044745Y-115639481D01*
X188044746Y-109519482D02*
X187044747Y-109519482D01*
X188044748Y-110519482D02*
X188044746Y-109519482D01*
D11*
%TO.C,S14*%
X161287915Y-106921316D02*
X160787920Y-107421319D01*
X161287918Y-111421314D02*
X160787916Y-110921314D01*
X163587920Y-111421309D02*
X161287918Y-111421314D01*
X164287921Y-106921315D02*
X161287915Y-106921316D01*
X164787920Y-107421313D02*
X164287921Y-106921315D01*
X164787920Y-107421313D02*
X164787920Y-108341313D01*
X165287920Y-113621312D02*
X165287918Y-112921315D01*
X165307918Y-108921315D02*
X169787917Y-108921313D01*
X169787917Y-108921313D02*
X169787925Y-109521316D01*
X169787919Y-113121311D02*
X169787919Y-113621311D01*
X169787919Y-113621311D02*
X165287920Y-113621312D01*
X163587920Y-111421309D02*
G75*
G02*
X165287923Y-112901314I109999J-1590004D01*
G01*
X165307918Y-108921315D02*
G75*
G02*
X164787917Y-108341313I30001J550002D01*
G01*
%TO.C,S10*%
X143287926Y-121921324D02*
X142787931Y-122421327D01*
X143287929Y-126421322D02*
X142787927Y-125921322D01*
X145587931Y-126421317D02*
X143287929Y-126421322D01*
X146287932Y-121921323D02*
X143287926Y-121921324D01*
X146787931Y-122421321D02*
X146287932Y-121921323D01*
X146787931Y-122421321D02*
X146787931Y-123341321D01*
X147287931Y-128621320D02*
X147287929Y-127921323D01*
X147307929Y-123921323D02*
X151787928Y-123921321D01*
X151787928Y-123921321D02*
X151787936Y-124521324D01*
X151787930Y-128121319D02*
X151787930Y-128621319D01*
X151787930Y-128621319D02*
X147287931Y-128621320D01*
X145587931Y-126421317D02*
G75*
G02*
X147287934Y-127901322I109999J-1590004D01*
G01*
X147307929Y-123921323D02*
G75*
G02*
X146787928Y-123341321I30001J550002D01*
G01*
%TO.C,S1*%
X86600574Y-133633334D02*
X86205170Y-134219551D01*
X87459220Y-138050650D02*
X86872998Y-137655241D01*
X89545459Y-133060902D02*
X86600574Y-133633334D01*
X89716963Y-137611791D02*
X87459220Y-138050650D01*
X90131679Y-133456312D02*
X89545459Y-133060902D01*
X90131679Y-133456312D02*
X90307222Y-134359409D01*
X90928336Y-134829534D02*
X95326022Y-133974707D01*
X91805507Y-139446997D02*
X91671935Y-138759859D01*
X95326022Y-133974707D02*
X95440512Y-134563684D01*
X96127420Y-138097543D02*
X96222828Y-138588352D01*
X96222828Y-138588352D02*
X91805507Y-139446997D01*
X89716963Y-137611791D02*
G75*
G02*
X91668124Y-138740227I411370J-1539786D01*
G01*
X90928336Y-134829534D02*
G75*
G02*
X90307218Y-134359410I-75496J545622D01*
G01*
D10*
%TO.C,D16*%
X166037930Y-157121323D02*
X166437932Y-157121325D01*
X166437932Y-157121325D02*
X166437927Y-157671321D01*
X166437932Y-157121325D02*
X166437928Y-156571325D01*
X166437932Y-157121325D02*
X167037934Y-156721323D01*
X167037927Y-157521320D02*
X166437932Y-157121325D01*
X167037931Y-157121323D02*
X167537932Y-157121323D01*
X167037934Y-156721323D02*
X167037927Y-157521320D01*
%TO.C,D20*%
X71347762Y-127225987D02*
X71500415Y-128011289D01*
X71424088Y-127618636D02*
X70933276Y-127714044D01*
X71500415Y-128011289D02*
X72013060Y-127504152D01*
X72013060Y-127504152D02*
X71347762Y-127225987D01*
X72013060Y-127504152D02*
X71908125Y-126964258D01*
X72013060Y-127504152D02*
X72118012Y-128044045D01*
X72405714Y-127427828D02*
X72013060Y-127504152D01*
%TO.C,D13*%
X165037921Y-137121309D02*
X165437923Y-137121311D01*
X165437923Y-137121311D02*
X165437918Y-137671307D01*
X165437923Y-137121311D02*
X165437919Y-136571311D01*
X165437923Y-137121311D02*
X166037925Y-136721309D01*
X166037918Y-137521306D02*
X165437923Y-137121311D01*
X166037922Y-137121309D02*
X166537923Y-137121309D01*
X166037925Y-136721309D02*
X166037918Y-137521306D01*
%TO.C,D18*%
X201570181Y-179071472D02*
X201793859Y-179403085D01*
X201793859Y-179403085D02*
X201337886Y-179710643D01*
X201793859Y-179403085D02*
X202249831Y-179095526D01*
X201793859Y-179403085D02*
X202460986Y-179676833D01*
X201797757Y-180124189D02*
X201793859Y-179403085D01*
X202129371Y-179900512D02*
X202408971Y-180315028D01*
X202460986Y-179676833D02*
X201797757Y-180124189D01*
D11*
%TO.C,S12*%
X143287929Y-87921315D02*
X142787934Y-88421318D01*
X143287932Y-92421313D02*
X142787930Y-91921313D01*
X145587934Y-92421308D02*
X143287932Y-92421313D01*
X146287935Y-87921314D02*
X143287929Y-87921315D01*
X146787934Y-88421312D02*
X146287935Y-87921314D01*
X146787934Y-88421312D02*
X146787934Y-89341312D01*
X147287934Y-94621311D02*
X147287932Y-93921314D01*
X147307932Y-89921314D02*
X151787931Y-89921312D01*
X151787931Y-89921312D02*
X151787939Y-90521315D01*
X151787933Y-94121310D02*
X151787933Y-94621310D01*
X151787933Y-94621310D02*
X147287934Y-94621311D01*
X145587934Y-92421308D02*
G75*
G02*
X147287937Y-93901313I109999J-1590004D01*
G01*
X147307932Y-89921314D02*
G75*
G02*
X146787931Y-89341312I30001J550002D01*
G01*
%TO.C,S13*%
X161287927Y-123921323D02*
X160787932Y-124421326D01*
X161287930Y-128421321D02*
X160787928Y-127921321D01*
X163587932Y-128421316D02*
X161287930Y-128421321D01*
X164287933Y-123921322D02*
X161287927Y-123921323D01*
X164787932Y-124421320D02*
X164287933Y-123921322D01*
X164787932Y-124421320D02*
X164787932Y-125341320D01*
X165287932Y-130621319D02*
X165287930Y-129921322D01*
X165307930Y-125921322D02*
X169787929Y-125921320D01*
X169787929Y-125921320D02*
X169787937Y-126521323D01*
X169787931Y-130121318D02*
X169787931Y-130621318D01*
X169787931Y-130621318D02*
X165287932Y-130621319D01*
X163587932Y-128421316D02*
G75*
G02*
X165287935Y-129901321I109999J-1590004D01*
G01*
X165307930Y-125921322D02*
G75*
G02*
X164787929Y-125341320I30001J550002D01*
G01*
D10*
%TO.C,D19*%
X74591513Y-143913650D02*
X74744166Y-144698952D01*
X74667839Y-144306299D02*
X74177027Y-144401707D01*
X74744166Y-144698952D02*
X75256811Y-144191815D01*
X75256811Y-144191815D02*
X74591513Y-143913650D01*
X75256811Y-144191815D02*
X75151876Y-143651921D01*
X75256811Y-144191815D02*
X75361763Y-144731708D01*
X75649465Y-144115491D02*
X75256811Y-144191815D01*
%TO.C,D3*%
X86312858Y-112499955D02*
X86705512Y-112423630D01*
X86705512Y-112423630D02*
X86600558Y-111883741D01*
X86705512Y-112423630D02*
X86810447Y-112963527D01*
X86705512Y-112423630D02*
X87218161Y-111916497D01*
X87218161Y-111916497D02*
X87370804Y-112701802D01*
X87294484Y-112309150D02*
X87785296Y-112213745D01*
X87370804Y-112701802D02*
X86705512Y-112423630D01*
%TO.C,D5*%
X108839493Y-118826428D02*
X109237650Y-118788090D01*
X109237650Y-118788090D02*
X109184933Y-118240623D01*
X109237650Y-118788090D02*
X109290362Y-119335554D01*
X109237650Y-118788090D02*
X109796552Y-118332422D01*
X109796552Y-118332422D02*
X109873222Y-119128738D01*
X109834887Y-118730581D02*
X110332585Y-118682656D01*
X109873222Y-119128738D02*
X109237650Y-118788090D01*
%TO.C,D17*%
X186277081Y-164162122D02*
X186630258Y-164349917D01*
X186630258Y-164349917D02*
X186372054Y-164835535D01*
X186630258Y-164349917D02*
X186888467Y-163864293D01*
X186630258Y-164349917D02*
X187347816Y-164278420D01*
X186972234Y-164984772D02*
X186630258Y-164349917D01*
X187160029Y-164631596D02*
X187601501Y-164866336D01*
X187347816Y-164278420D02*
X186972234Y-164984772D01*
%TO.C,D14*%
X165037924Y-120121310D02*
X165437926Y-120121312D01*
X165437926Y-120121312D02*
X165437921Y-120671308D01*
X165437926Y-120121312D02*
X165437922Y-119571312D01*
X165437926Y-120121312D02*
X166037928Y-119721310D01*
X166037921Y-120521307D02*
X165437926Y-120121312D01*
X166037925Y-120121310D02*
X166537926Y-120121310D01*
X166037928Y-119721310D02*
X166037921Y-120521307D01*
D11*
%TO.C,S20*%
X64733497Y-115472099D02*
X64338093Y-116058316D01*
X65592143Y-119889415D02*
X65005921Y-119494006D01*
X67678382Y-114899667D02*
X64733497Y-115472099D01*
X67849886Y-119450556D02*
X65592143Y-119889415D01*
X68264602Y-115295077D02*
X67678382Y-114899667D01*
X68264602Y-115295077D02*
X68440145Y-116198174D01*
X69061259Y-116668299D02*
X73458945Y-115813472D01*
X69938430Y-121285762D02*
X69804858Y-120598624D01*
X73458945Y-115813472D02*
X73573435Y-116402449D01*
X74260343Y-119936308D02*
X74355751Y-120427117D01*
X74355751Y-120427117D02*
X69938430Y-121285762D01*
X67849886Y-119450556D02*
G75*
G02*
X69801047Y-120578992I411370J-1539786D01*
G01*
X69061259Y-116668299D02*
G75*
G02*
X68440141Y-116198175I-75496J545622D01*
G01*
D12*
%TO.C,U?*%
X245778340Y-106647975D02*
X245778338Y-89647976D01*
X250178339Y-87647975D02*
X247778337Y-87647975D01*
X250178340Y-86247973D02*
X250178339Y-87647975D01*
X259178338Y-86247976D02*
X250178340Y-86247973D01*
X259178341Y-87647976D02*
X259178338Y-86247976D01*
X261578337Y-87647975D02*
X259178341Y-87647976D01*
X261578337Y-108647971D02*
X247778337Y-108647973D01*
X263578336Y-89647976D02*
X263578336Y-106647972D01*
X245778338Y-89647976D02*
G75*
G02*
X247778334Y-87647975I2050002J-50001D01*
G01*
X247778337Y-108647973D02*
G75*
G02*
X245778340Y-106647975I50000J2049997D01*
G01*
X261578338Y-87647974D02*
G75*
G02*
X263578337Y-89647976I-50001J-2050000D01*
G01*
X263578336Y-106647972D02*
G75*
G02*
X261578337Y-108647973I-2049999J49998D01*
G01*
D10*
%TO.C,D34*%
X276928342Y-120147972D02*
X277328342Y-120147973D01*
X277328342Y-120147973D02*
X277328342Y-119597973D01*
X277328342Y-120147973D02*
X277328342Y-120697974D01*
X277328342Y-120147973D02*
X277928343Y-119747973D01*
X277928341Y-120147976D02*
X278428342Y-120147974D01*
X277928343Y-119747973D02*
X277928345Y-120547973D01*
X277928345Y-120547973D02*
X277328342Y-120147973D01*
%TO.C,D25*%
X333106053Y-119284388D02*
X333504212Y-119322726D01*
X333504212Y-119322726D02*
X333451497Y-119870194D01*
X333504212Y-119322726D02*
X333556928Y-118775260D01*
X333504212Y-119322726D02*
X334139788Y-118982075D01*
X334063112Y-119778392D02*
X333504212Y-119322726D01*
X334101450Y-119380236D02*
X334599149Y-119428156D01*
X334139788Y-118982075D02*
X334063112Y-119778392D01*
D11*
%TO.C,S39*%
X365685499Y-136031314D02*
X365290089Y-135445095D01*
X366544137Y-131613993D02*
X365957922Y-132009402D01*
X367943241Y-136470173D02*
X365685499Y-136031314D01*
X369192227Y-138954128D02*
X369325794Y-138266991D01*
X369489020Y-132186419D02*
X366544137Y-131613993D01*
X369884430Y-132772637D02*
X369489020Y-132186419D01*
X369884430Y-132772637D02*
X369708886Y-133675733D01*
X370108662Y-134344298D02*
X374506353Y-135199122D01*
X373609551Y-139812768D02*
X369192227Y-138954128D01*
X373704956Y-139321956D02*
X373609551Y-139812768D01*
X374506353Y-135199122D02*
X374391866Y-135788096D01*
X367943241Y-136470173D02*
G75*
G02*
X369329611Y-138247358I-195407J-1581777D01*
G01*
X370108662Y-134344298D02*
G75*
G02*
X369708884Y-133675732I134394J534172D01*
G01*
%TO.C,S35*%
X273178339Y-94447974D02*
X272678341Y-93947972D01*
X273178340Y-89947974D02*
X272678340Y-90447973D01*
X275478340Y-94447973D02*
X273178339Y-94447974D01*
X276178340Y-89947972D02*
X273178340Y-89947974D01*
X276678339Y-90447973D02*
X276178340Y-89947972D01*
X276678339Y-90447973D02*
X276678339Y-91367973D01*
X277178342Y-96647973D02*
X277178340Y-95947973D01*
X277198339Y-91947973D02*
X281678341Y-91947973D01*
X281678337Y-96647974D02*
X277178342Y-96647973D01*
X281678339Y-96147974D02*
X281678337Y-96647974D01*
X281678341Y-91947973D02*
X281678339Y-92547973D01*
X275478340Y-94447973D02*
G75*
G02*
X277178339Y-95927973I110007J-1589991D01*
G01*
X277198339Y-91947973D02*
G75*
G02*
X276678340Y-91367973I30001J550000D01*
G01*
%TO.C,S23*%
X353549669Y-104129564D02*
X353154259Y-103543345D01*
X354408307Y-99712243D02*
X353822092Y-100107652D01*
X355807411Y-104568423D02*
X353549669Y-104129564D01*
X357056397Y-107052378D02*
X357189964Y-106365241D01*
X357353190Y-100284669D02*
X354408307Y-99712243D01*
X357748600Y-100870887D02*
X357353190Y-100284669D01*
X357748600Y-100870887D02*
X357573056Y-101773983D01*
X357972832Y-102442548D02*
X362370523Y-103297372D01*
X361473721Y-107911018D02*
X357056397Y-107052378D01*
X361569126Y-107420206D02*
X361473721Y-107911018D01*
X362370523Y-103297372D02*
X362256036Y-103886346D01*
X355807411Y-104568423D02*
G75*
G02*
X357193781Y-106345608I-195407J-1581777D01*
G01*
X357972832Y-102442548D02*
G75*
G02*
X357573054Y-101773982I134394J534172D01*
G01*
%TO.C,S26*%
X331836555Y-93343289D02*
X331386779Y-92797668D01*
X332267859Y-88864007D02*
X331722239Y-89313781D01*
X334125966Y-93563734D02*
X331836555Y-93343289D01*
X335254048Y-89151542D02*
X332267859Y-88864007D01*
X335607277Y-95916545D02*
X335674369Y-95219766D01*
X335703823Y-89697164D02*
X335254048Y-89151542D01*
X335703823Y-89697164D02*
X335615646Y-90612929D01*
X336077660Y-91240097D02*
X340537040Y-91669487D01*
X340086560Y-96347849D02*
X335607277Y-95916545D01*
X340134484Y-95850152D02*
X340086560Y-96347849D01*
X340537040Y-91669487D02*
X340479529Y-92266723D01*
X334125966Y-93563734D02*
G75*
G02*
X335676287Y-95199858I-42897J-1593218D01*
G01*
X336077660Y-91240097D02*
G75*
G02*
X335615646Y-90612929I82578J544592D01*
G01*
%TO.C,S40*%
X368929246Y-119343656D02*
X368533836Y-118757437D01*
X369787884Y-114926335D02*
X369201669Y-115321744D01*
X371186988Y-119782515D02*
X368929246Y-119343656D01*
X372435974Y-122266470D02*
X372569541Y-121579333D01*
X372732767Y-115498761D02*
X369787884Y-114926335D01*
X373128177Y-116084979D02*
X372732767Y-115498761D01*
X373128177Y-116084979D02*
X372952633Y-116988075D01*
X373352409Y-117656640D02*
X377750100Y-118511464D01*
X376853298Y-123125110D02*
X372435974Y-122266470D01*
X376948703Y-122634298D02*
X376853298Y-123125110D01*
X377750100Y-118511464D02*
X377635613Y-119100438D01*
X371186988Y-119782515D02*
G75*
G02*
X372573358Y-121559700I-195407J-1581777D01*
G01*
X373352409Y-117656640D02*
G75*
G02*
X372952631Y-116988074I134394J534172D01*
G01*
D10*
%TO.C,D23*%
X355570725Y-113385259D02*
X355963377Y-113461583D01*
X355963377Y-113461583D02*
X355858432Y-114001478D01*
X355963377Y-113461583D02*
X356068322Y-112921688D01*
X355963377Y-113461583D02*
X356628677Y-113183418D01*
X356476029Y-113968719D02*
X355963377Y-113461583D01*
X356552353Y-113576070D02*
X357043167Y-113671473D01*
X356628677Y-113183418D02*
X356476029Y-113968719D01*
%TO.C,D21*%
X349083228Y-146760572D02*
X349475880Y-146836896D01*
X349475880Y-146836896D02*
X349370935Y-147376791D01*
X349475880Y-146836896D02*
X349580825Y-146297001D01*
X349475880Y-146836896D02*
X350141180Y-146558731D01*
X349988532Y-147344032D02*
X349475880Y-146836896D01*
X350064856Y-146951383D02*
X350555670Y-147046786D01*
X350141180Y-146558731D02*
X349988532Y-147344032D01*
%TO.C,D31*%
X294928339Y-118147967D02*
X295328339Y-118147968D01*
X295328339Y-118147968D02*
X295328339Y-117597968D01*
X295328339Y-118147968D02*
X295328339Y-118697969D01*
X295328339Y-118147968D02*
X295928340Y-117747968D01*
X295928338Y-118147971D02*
X296428339Y-118147969D01*
X295928340Y-117747968D02*
X295928342Y-118547968D01*
X295928342Y-118547968D02*
X295328339Y-118147968D01*
%TO.C,D37*%
X255162449Y-162076161D02*
X255515628Y-161888371D01*
X255515628Y-161888371D02*
X255257419Y-161402750D01*
X255515628Y-161888371D02*
X255773838Y-162373992D01*
X255515628Y-161888371D02*
X255857608Y-161253511D01*
X255857608Y-161253511D02*
X256233187Y-161959866D01*
X256045398Y-161606690D02*
X256486871Y-161371951D01*
X256233187Y-161959866D02*
X255515628Y-161888371D01*
D11*
%TO.C,S33*%
X273178339Y-128447979D02*
X272678341Y-127947977D01*
X273178340Y-123947979D02*
X272678340Y-124447978D01*
X275478340Y-128447978D02*
X273178339Y-128447979D01*
X276178340Y-123947977D02*
X273178340Y-123947979D01*
X276678339Y-124447978D02*
X276178340Y-123947977D01*
X276678339Y-124447978D02*
X276678339Y-125367978D01*
X277178342Y-130647978D02*
X277178340Y-129947978D01*
X277198339Y-125947978D02*
X281678341Y-125947978D01*
X281678337Y-130647979D02*
X277178342Y-130647978D01*
X281678339Y-130147979D02*
X281678337Y-130647979D01*
X281678341Y-125947978D02*
X281678339Y-126547978D01*
X275478340Y-128447978D02*
G75*
G02*
X277178339Y-129927978I110007J-1589991D01*
G01*
X277198339Y-125947978D02*
G75*
G02*
X276678340Y-125367978I30001J550000D01*
G01*
%TO.C,S28*%
X309178342Y-101447973D02*
X308678344Y-100947971D01*
X309178343Y-96947973D02*
X308678343Y-97447972D01*
X311478343Y-101447972D02*
X309178342Y-101447973D01*
X312178343Y-96947971D02*
X309178343Y-96947973D01*
X312678342Y-97447972D02*
X312178343Y-96947971D01*
X312678342Y-97447972D02*
X312678342Y-98367972D01*
X313178345Y-103647972D02*
X313178343Y-102947972D01*
X313198342Y-98947972D02*
X317678344Y-98947972D01*
X317678340Y-103647973D02*
X313178345Y-103647972D01*
X317678342Y-103147973D02*
X317678340Y-103647973D01*
X317678344Y-98947972D02*
X317678342Y-99547972D01*
X311478343Y-101447972D02*
G75*
G02*
X313178342Y-102927972I110007J-1589991D01*
G01*
X313198342Y-98947972D02*
G75*
G02*
X312678343Y-98367972I30001J550000D01*
G01*
%TO.C,S34*%
X273178341Y-111447972D02*
X272678343Y-110947970D01*
X273178342Y-106947972D02*
X272678342Y-107447971D01*
X275478342Y-111447971D02*
X273178341Y-111447972D01*
X276178342Y-106947970D02*
X273178342Y-106947972D01*
X276678341Y-107447971D02*
X276178342Y-106947970D01*
X276678341Y-107447971D02*
X276678341Y-108367971D01*
X277178344Y-113647971D02*
X277178342Y-112947971D01*
X277198341Y-108947971D02*
X281678343Y-108947971D01*
X281678339Y-113647972D02*
X277178344Y-113647971D01*
X281678341Y-113147972D02*
X281678339Y-113647972D01*
X281678343Y-108947971D02*
X281678341Y-109547971D01*
X275478342Y-111447971D02*
G75*
G02*
X277178341Y-112927971I110007J-1589991D01*
G01*
X277198341Y-108947971D02*
G75*
G02*
X276678342Y-108367971I30001J550000D01*
G01*
%TO.C,S36*%
X272178340Y-148447976D02*
X271678342Y-147947974D01*
X272178341Y-143947976D02*
X271678341Y-144447975D01*
X274478341Y-148447975D02*
X272178340Y-148447976D01*
X275178341Y-143947974D02*
X272178341Y-143947976D01*
X275678340Y-144447975D02*
X275178341Y-143947974D01*
X275678340Y-144447975D02*
X275678340Y-145367975D01*
X276178343Y-150647975D02*
X276178341Y-149947975D01*
X276198340Y-145947975D02*
X280678342Y-145947975D01*
X280678338Y-150647976D02*
X276178343Y-150647975D01*
X280678340Y-150147976D02*
X280678338Y-150647976D01*
X280678342Y-145947975D02*
X280678340Y-146547975D01*
X274478341Y-148447975D02*
G75*
G02*
X276178340Y-149927975I110007J-1589991D01*
G01*
X276198340Y-145947975D02*
G75*
G02*
X275678341Y-145367975I30001J550000D01*
G01*
D10*
%TO.C,D35*%
X276928340Y-103147968D02*
X277328340Y-103147969D01*
X277328340Y-103147969D02*
X277328340Y-102597969D01*
X277328340Y-103147969D02*
X277328340Y-103697970D01*
X277328340Y-103147969D02*
X277928341Y-102747969D01*
X277928339Y-103147972D02*
X278428340Y-103147970D01*
X277928341Y-102747969D02*
X277928343Y-103547969D01*
X277928343Y-103547969D02*
X277328340Y-103147969D01*
%TO.C,RST1*%
X244928340Y-116047977D02*
X244928340Y-115797982D01*
X244928344Y-120247977D02*
X244928341Y-120497984D01*
X245178341Y-115797979D02*
X244928340Y-115797982D01*
X245178341Y-120497979D02*
X244928341Y-120497984D01*
X248178341Y-115797981D02*
X248428341Y-115797976D01*
X248178341Y-120497981D02*
X248428342Y-120497978D01*
X248428338Y-116047983D02*
X248428341Y-115797976D01*
X248428342Y-120247983D02*
X248428342Y-120497978D01*
D11*
%TO.C,S37*%
X245654368Y-152181769D02*
X245447632Y-152857979D01*
X247766991Y-156155034D02*
X247090781Y-155948296D01*
X248303211Y-150773355D02*
X245654368Y-152181769D01*
X248979419Y-150980094D02*
X248303211Y-150773355D01*
X248979419Y-150980094D02*
X249411334Y-151792405D01*
X249797771Y-155075251D02*
X247766991Y-156155034D01*
X250142761Y-152060389D02*
X254098366Y-149957155D01*
X252331616Y-156219633D02*
X252002987Y-155601570D01*
X254098366Y-149957155D02*
X254380049Y-150486926D01*
X256070147Y-153665537D02*
X256304883Y-154107011D01*
X256304883Y-154107011D02*
X252331616Y-156219633D01*
X249797771Y-155075251D02*
G75*
G02*
X251993600Y-155583909I843586J-1352240D01*
G01*
X250142761Y-152060389D02*
G75*
G02*
X249411335Y-151792405I-231721J499705D01*
G01*
D10*
%TO.C,D27*%
X312928343Y-127147974D02*
X313328343Y-127147975D01*
X313328343Y-127147975D02*
X313328343Y-126597975D01*
X313328343Y-127147975D02*
X313328343Y-127697976D01*
X313328343Y-127147975D02*
X313928344Y-126747975D01*
X313928342Y-127147978D02*
X314428343Y-127147976D01*
X313928344Y-126747975D02*
X313928346Y-127547975D01*
X313928346Y-127547975D02*
X313328343Y-127147975D01*
%TO.C,D30*%
X294928335Y-135147971D02*
X295328335Y-135147972D01*
X295328335Y-135147972D02*
X295328335Y-134597972D01*
X295328335Y-135147972D02*
X295328335Y-135697973D01*
X295328335Y-135147972D02*
X295928336Y-134747972D01*
X295928334Y-135147975D02*
X296428335Y-135147973D01*
X295928336Y-134747972D02*
X295928338Y-135547972D01*
X295928338Y-135547972D02*
X295328335Y-135147972D01*
%TO.C,D33*%
X276928335Y-137147963D02*
X277328335Y-137147964D01*
X277328335Y-137147964D02*
X277328335Y-136597964D01*
X277328335Y-137147964D02*
X277328335Y-137697965D01*
X277328335Y-137147964D02*
X277928336Y-136747964D01*
X277928334Y-137147967D02*
X278428335Y-137147965D01*
X277928336Y-136747964D02*
X277928338Y-137547964D01*
X277928338Y-137547964D02*
X277328335Y-137147964D01*
D11*
%TO.C,S32*%
X291178338Y-92447977D02*
X290678340Y-91947975D01*
X291178339Y-87947977D02*
X290678339Y-88447976D01*
X293478339Y-92447976D02*
X291178338Y-92447977D01*
X294178339Y-87947975D02*
X291178339Y-87947977D01*
X294678338Y-88447976D02*
X294178339Y-87947975D01*
X294678338Y-88447976D02*
X294678338Y-89367976D01*
X295178341Y-94647976D02*
X295178339Y-93947976D01*
X295198338Y-89947976D02*
X299678340Y-89947976D01*
X299678336Y-94647977D02*
X295178341Y-94647976D01*
X299678338Y-94147977D02*
X299678336Y-94647977D01*
X299678340Y-89947976D02*
X299678338Y-90547976D01*
X293478339Y-92447976D02*
G75*
G02*
X295178338Y-93927976I110007J-1589991D01*
G01*
X295198338Y-89947976D02*
G75*
G02*
X294678339Y-89367976I30001J550000D01*
G01*
%TO.C,S31*%
X291178337Y-109447971D02*
X290678339Y-108947969D01*
X291178338Y-104947971D02*
X290678338Y-105447970D01*
X293478338Y-109447970D02*
X291178337Y-109447971D01*
X294178338Y-104947969D02*
X291178338Y-104947971D01*
X294678337Y-105447970D02*
X294178338Y-104947969D01*
X294678337Y-105447970D02*
X294678337Y-106367970D01*
X295178340Y-111647970D02*
X295178338Y-110947970D01*
X295198337Y-106947970D02*
X299678339Y-106947970D01*
X299678335Y-111647971D02*
X295178340Y-111647970D01*
X299678337Y-111147971D02*
X299678335Y-111647971D01*
X299678339Y-106947970D02*
X299678337Y-107547970D01*
X293478338Y-109447970D02*
G75*
G02*
X295178337Y-110927970I110007J-1589991D01*
G01*
X295198337Y-106947970D02*
G75*
G02*
X294678338Y-106367970I30001J550000D01*
G01*
%TO.C,S24*%
X328577799Y-127186755D02*
X328128023Y-126641134D01*
X329009103Y-122707473D02*
X328463483Y-123157247D01*
X330867210Y-127407200D02*
X328577799Y-127186755D01*
X331995292Y-122995008D02*
X329009103Y-122707473D01*
X332348521Y-129760011D02*
X332415613Y-129063232D01*
X332445067Y-123540630D02*
X331995292Y-122995008D01*
X332445067Y-123540630D02*
X332356890Y-124456395D01*
X332818904Y-125083563D02*
X337278284Y-125512953D01*
X336827804Y-130191315D02*
X332348521Y-129760011D01*
X336875728Y-129693618D02*
X336827804Y-130191315D01*
X337278284Y-125512953D02*
X337220773Y-126110189D01*
X330867210Y-127407200D02*
G75*
G02*
X332417531Y-129043324I-42897J-1593218D01*
G01*
X332818904Y-125083563D02*
G75*
G02*
X332356890Y-124456395I82578J544592D01*
G01*
D10*
%TO.C,D24*%
X331476671Y-136206114D02*
X331874830Y-136244452D01*
X331874830Y-136244452D02*
X331822115Y-136791920D01*
X331874830Y-136244452D02*
X331927546Y-135696986D01*
X331874830Y-136244452D02*
X332510406Y-135903801D01*
X332433730Y-136700118D02*
X331874830Y-136244452D01*
X332472068Y-136301962D02*
X332969767Y-136349882D01*
X332510406Y-135903801D02*
X332433730Y-136700118D01*
D11*
%TO.C,S22*%
X350305910Y-120817224D02*
X349910500Y-120231005D01*
X351164548Y-116399903D02*
X350578333Y-116795312D01*
X352563652Y-121256083D02*
X350305910Y-120817224D01*
X353812638Y-123740038D02*
X353946205Y-123052901D01*
X354109431Y-116972329D02*
X351164548Y-116399903D01*
X354504841Y-117558547D02*
X354109431Y-116972329D01*
X354504841Y-117558547D02*
X354329297Y-118461643D01*
X354729073Y-119130208D02*
X359126764Y-119985032D01*
X358229962Y-124598678D02*
X353812638Y-123740038D01*
X358325367Y-124107866D02*
X358229962Y-124598678D01*
X359126764Y-119985032D02*
X359012277Y-120574006D01*
X352563652Y-121256083D02*
G75*
G02*
X353950022Y-123033268I-195407J-1581777D01*
G01*
X354729073Y-119130208D02*
G75*
G02*
X354329295Y-118461642I134394J534172D01*
G01*
D10*
%TO.C,D40*%
X371364801Y-129087388D02*
X371517449Y-128302087D01*
X371441125Y-128694736D02*
X370950311Y-128599333D01*
X371517449Y-128302087D02*
X372030101Y-128809223D01*
X372030101Y-128809223D02*
X371364801Y-129087388D01*
X372030101Y-128809223D02*
X371925156Y-129349118D01*
X372030101Y-128809223D02*
X372135046Y-128269328D01*
X372422753Y-128885547D02*
X372030101Y-128809223D01*
%TO.C,D28*%
X312928339Y-110147968D02*
X313328339Y-110147969D01*
X313328339Y-110147969D02*
X313328339Y-109597969D01*
X313328339Y-110147969D02*
X313328339Y-110697970D01*
X313328339Y-110147969D02*
X313928340Y-109747969D01*
X313928338Y-110147972D02*
X314428339Y-110147970D01*
X313928340Y-109747969D02*
X313928342Y-110547969D01*
X313928342Y-110547969D02*
X313328339Y-110147969D01*
D13*
%TO.C,JST1*%
X249311053Y-114796989D02*
X249311055Y-115796989D01*
X249311054Y-109676988D02*
X250311055Y-109676988D01*
X249311055Y-110596989D02*
X249311054Y-109676988D01*
X249311055Y-115796989D02*
X250311055Y-115796986D01*
X257131054Y-114876987D02*
X257131054Y-115796989D01*
X257131054Y-115796989D02*
X256131055Y-115796988D01*
X257131055Y-109676988D02*
X256131055Y-109676987D01*
X257131057Y-110596988D02*
X257131055Y-109676988D01*
D10*
X257671054Y-113736987D02*
X258671055Y-113736989D01*
X258171055Y-111236991D02*
X258171055Y-112236988D01*
X258171057Y-114236990D02*
X258171052Y-113236988D01*
%TO.C,D29*%
X312928339Y-93147969D02*
X313328339Y-93147970D01*
X313328339Y-93147970D02*
X313328339Y-92597970D01*
X313328339Y-93147970D02*
X313328339Y-93697971D01*
X313328339Y-93147970D02*
X313928340Y-92747970D01*
X313928338Y-93147973D02*
X314428339Y-93147971D01*
X313928340Y-92747970D02*
X313928342Y-93547970D01*
X313928342Y-93547970D02*
X313328339Y-93147970D01*
D11*
%TO.C,S30*%
X291178339Y-126447973D02*
X290678341Y-125947971D01*
X291178340Y-121947973D02*
X290678340Y-122447972D01*
X293478340Y-126447972D02*
X291178339Y-126447973D01*
X294178340Y-121947971D02*
X291178340Y-121947973D01*
X294678339Y-122447972D02*
X294178340Y-121947971D01*
X294678339Y-122447972D02*
X294678339Y-123367972D01*
X295178342Y-128647972D02*
X295178340Y-127947972D01*
X295198339Y-123947972D02*
X299678341Y-123947972D01*
X299678337Y-128647973D02*
X295178342Y-128647972D01*
X299678339Y-128147973D02*
X299678337Y-128647973D01*
X299678341Y-123947972D02*
X299678339Y-124547972D01*
X293478340Y-126447972D02*
G75*
G02*
X295178339Y-127927972I110007J-1589991D01*
G01*
X295198339Y-123947972D02*
G75*
G02*
X294678340Y-123367972I30001J550000D01*
G01*
D10*
%TO.C,D38*%
X238412446Y-175367463D02*
X238636123Y-175035850D01*
X238636123Y-175035850D02*
X238180152Y-174728293D01*
X238636123Y-175035850D02*
X238640024Y-174314749D01*
X238636123Y-175035850D02*
X239092093Y-175343406D01*
X238640024Y-174314749D02*
X239303252Y-174762103D01*
X238971639Y-174538427D02*
X239251234Y-174123909D01*
X239303252Y-174762103D02*
X238636123Y-175035850D01*
D11*
%TO.C,S38*%
X225372180Y-171095005D02*
X225507104Y-171789122D01*
X227049759Y-168607894D02*
X225372180Y-171095005D01*
X227743874Y-168472971D02*
X227049759Y-168607894D01*
X227743874Y-168472971D02*
X228506590Y-168987430D01*
X229102850Y-173611375D02*
X228408734Y-173746297D01*
X229278211Y-168880662D02*
X231783396Y-165166572D01*
X230388996Y-171704588D02*
X229102850Y-173611375D01*
X231783396Y-165166572D02*
X232280817Y-165502088D01*
X233163503Y-171525448D02*
X232583177Y-171134013D01*
X235265355Y-167515182D02*
X235679870Y-167794779D01*
X235679870Y-167794779D02*
X233163503Y-171525448D01*
X229278211Y-168880662D02*
G75*
G02*
X228506590Y-168987430I-439195J332428D01*
G01*
X230388996Y-171704588D02*
G75*
G02*
X232566595Y-171122830I1379677J-797914D01*
G01*
%TO.C,S29*%
X309178334Y-84447984D02*
X308678336Y-83947982D01*
X309178335Y-79947984D02*
X308678335Y-80447983D01*
X311478335Y-84447983D02*
X309178334Y-84447984D01*
X312178335Y-79947982D02*
X309178335Y-79947984D01*
X312678334Y-80447983D02*
X312178335Y-79947982D01*
X312678334Y-80447983D02*
X312678334Y-81367983D01*
X313178337Y-86647983D02*
X313178335Y-85947983D01*
X313198334Y-81947983D02*
X317678336Y-81947983D01*
X317678332Y-86647984D02*
X313178337Y-86647983D01*
X317678334Y-86147984D02*
X317678332Y-86647984D01*
X317678336Y-81947983D02*
X317678334Y-82547983D01*
X311478335Y-84447983D02*
G75*
G02*
X313178334Y-85927983I110007J-1589991D01*
G01*
X313198334Y-81947983D02*
G75*
G02*
X312678335Y-81367983I30001J550000D01*
G01*
D10*
%TO.C,D26*%
X334735432Y-102362650D02*
X335133591Y-102400988D01*
X335133591Y-102400988D02*
X335080876Y-102948456D01*
X335133591Y-102400988D02*
X335186307Y-101853522D01*
X335133591Y-102400988D02*
X335769167Y-102060337D01*
X335692491Y-102856654D02*
X335133591Y-102400988D01*
X335730829Y-102458498D02*
X336228528Y-102506418D01*
X335769167Y-102060337D02*
X335692491Y-102856654D01*
D11*
%TO.C,S21*%
X347062166Y-137504894D02*
X346666756Y-136918675D01*
X347920804Y-133087573D02*
X347334589Y-133482982D01*
X349319908Y-137943753D02*
X347062166Y-137504894D01*
X350568894Y-140427708D02*
X350702461Y-139740571D01*
X350865687Y-133659999D02*
X347920804Y-133087573D01*
X351261097Y-134246217D02*
X350865687Y-133659999D01*
X351261097Y-134246217D02*
X351085553Y-135149313D01*
X351485329Y-135817878D02*
X355883020Y-136672702D01*
X354986218Y-141286348D02*
X350568894Y-140427708D01*
X355081623Y-140795536D02*
X354986218Y-141286348D01*
X355883020Y-136672702D02*
X355768533Y-137261676D01*
X349319908Y-137943753D02*
G75*
G02*
X350706278Y-139720938I-195407J-1581777D01*
G01*
X351485329Y-135817878D02*
G75*
G02*
X351085551Y-135149312I134394J534172D01*
G01*
%TO.C,S25*%
X330207182Y-110265020D02*
X329757406Y-109719399D01*
X330638486Y-105785738D02*
X330092866Y-106235512D01*
X332496593Y-110485465D02*
X330207182Y-110265020D01*
X333624675Y-106073273D02*
X330638486Y-105785738D01*
X333977904Y-112838276D02*
X334044996Y-112141497D01*
X334074450Y-106618895D02*
X333624675Y-106073273D01*
X334074450Y-106618895D02*
X333986273Y-107534660D01*
X334448287Y-108161828D02*
X338907667Y-108591218D01*
X338457187Y-113269580D02*
X333977904Y-112838276D01*
X338505111Y-112771883D02*
X338457187Y-113269580D01*
X338907667Y-108591218D02*
X338850156Y-109188454D01*
X332496593Y-110485465D02*
G75*
G02*
X334046914Y-112121589I-42897J-1593218D01*
G01*
X334448287Y-108161828D02*
G75*
G02*
X333986273Y-107534660I82578J544592D01*
G01*
D10*
%TO.C,D22*%
X352326974Y-130072917D02*
X352719626Y-130149241D01*
X352719626Y-130149241D02*
X352614681Y-130689136D01*
X352719626Y-130149241D02*
X352824571Y-129609346D01*
X352719626Y-130149241D02*
X353384926Y-129871076D01*
X353232278Y-130656377D02*
X352719626Y-130149241D01*
X353308602Y-130263728D02*
X353799416Y-130359131D01*
X353384926Y-129871076D02*
X353232278Y-130656377D01*
D13*
%TO.C,PWR1*%
X245346054Y-131086997D02*
X245346058Y-125386988D01*
X246356050Y-124786988D02*
X247146044Y-124786986D01*
X247146049Y-131686987D02*
X246356047Y-131686986D01*
X248196052Y-126836985D02*
X248196057Y-126636977D01*
X248196054Y-129836979D02*
X248196047Y-128136990D01*
D10*
%TO.C,D32*%
X294928338Y-101147966D02*
X295328338Y-101147967D01*
X295328338Y-101147967D02*
X295328338Y-100597967D01*
X295328338Y-101147967D02*
X295328338Y-101697968D01*
X295328338Y-101147967D02*
X295928339Y-100747967D01*
X295928337Y-101147970D02*
X296428338Y-101147968D01*
X295928339Y-100747967D02*
X295928341Y-101547967D01*
X295928341Y-101547967D02*
X295328338Y-101147967D01*
%TO.C,D36*%
X275928335Y-157147974D02*
X276328335Y-157147975D01*
X276328335Y-157147975D02*
X276328335Y-156597975D01*
X276328335Y-157147975D02*
X276328335Y-157697976D01*
X276328335Y-157147975D02*
X276928336Y-156747975D01*
X276928334Y-157147978D02*
X277428335Y-157147976D01*
X276928336Y-156747975D02*
X276928338Y-157547975D01*
X276928338Y-157547975D02*
X276328335Y-157147975D01*
%TO.C,D39*%
X368121049Y-145775060D02*
X368273697Y-144989759D01*
X368197373Y-145382408D02*
X367706559Y-145287005D01*
X368273697Y-144989759D02*
X368786349Y-145496895D01*
X368786349Y-145496895D02*
X368121049Y-145775060D01*
X368786349Y-145496895D02*
X368681404Y-146036790D01*
X368786349Y-145496895D02*
X368891294Y-144957000D01*
X369179001Y-145573219D02*
X368786349Y-145496895D01*
D11*
%TO.C,S27*%
X309178332Y-118447969D02*
X308678334Y-117947967D01*
X309178333Y-113947969D02*
X308678333Y-114447968D01*
X311478333Y-118447968D02*
X309178332Y-118447969D01*
X312178333Y-113947967D02*
X309178333Y-113947969D01*
X312678332Y-114447968D02*
X312178333Y-113947967D01*
X312678332Y-114447968D02*
X312678332Y-115367968D01*
X313178335Y-120647968D02*
X313178333Y-119947968D01*
X313198332Y-115947968D02*
X317678334Y-115947968D01*
X317678330Y-120647969D02*
X313178335Y-120647968D01*
X317678332Y-120147969D02*
X317678330Y-120647969D01*
X317678334Y-115947968D02*
X317678332Y-116547968D01*
X311478333Y-118447968D02*
G75*
G02*
X313178332Y-119927968I110007J-1589991D01*
G01*
X313198332Y-115947968D02*
G75*
G02*
X312678333Y-115367968I30001J550000D01*
G01*
%TD*%
M02*
