M48
; DRILL file {KiCad 9.0.6} date 2025-12-31T17:57:46+0100
; FORMAT={-:-/ absolute / metric / decimal}
; #@! TF.CreationDate,2025-12-31T17:57:46+01:00
; #@! TF.GenerationSoftware,Kicad,Pcbnew,9.0.6
; #@! TF.FileFunction,Plated,1,2,PTH
FMAT,2
METRIC
; #@! TA.AperFunction,Plated,PTH,ViaDrill
T1C0.300
; #@! TA.AperFunction,Plated,PTH,ViaDrill
T2C0.400
; #@! TA.AperFunction,Plated,PTH,ComponentDrill
T3C0.500
; #@! TA.AperFunction,Plated,PTH,ComponentDrill
T4C0.750
; #@! TA.AperFunction,Plated,PTH,ComponentDrill
T5C0.800
; #@! TA.AperFunction,Plated,PTH,ComponentDrill
T6C1.450
; #@! TA.AperFunction,Plated,PTH,ComponentDrill
T7C1.500
; #@! TA.AperFunction,Plated,PTH,ComponentDrill
T8C1.600
%
G90
G05
T1
X171.788Y-103.796
X172.358Y-107.787
X172.578Y-91.781
X172.761Y-102.279
X173.341Y-110.452
X173.384Y-109.269
X175.179Y-93.0
X176.539Y-96.712
X176.944Y-101.511
X177.427Y-111.699
X178.499Y-88.421
X178.918Y-111.173
X180.615Y-113.141
X180.83Y-106.139
X181.382Y-109.13
X182.33Y-106.113
X183.361Y-115.809
X187.294Y-104.026
X190.34Y-100.619
X190.678Y-105.173
X191.468Y-113.954
X247.098Y-100.688
X247.16Y-98.147
X247.5Y-145.5
X247.528Y-115.523
X255.794Y-104.017
X256.294Y-106.517
X257.094Y-109.0
X257.694Y-104.017
X258.294Y-129.517
X258.294Y-131.017
X259.796Y-102.017
X263.0Y-109.0
X265.0Y-104.0
X266.794Y-141.517
X267.794Y-140.517
X267.795Y-142.518
X269.294Y-141.517
X270.5Y-105.0
X270.794Y-122.017
X272.003Y-104.5
X272.294Y-122.017
X275.794Y-137.517
X282.794Y-142.017
X284.303Y-142.017
X287.0Y-119.956
X287.0Y-119.956
X287.0Y-119.956
X287.294Y-107.017
X288.297Y-102.976
X290.517Y-119.018
X291.796Y-103.037
X305.62Y-113.28
X305.934Y-95.283
X307.691Y-128.006
X307.717Y-129.506
X308.645Y-111.833
X309.451Y-94.344
X324.038Y-96.869
X324.091Y-115.103
X327.027Y-124.777
X328.352Y-100.175
X329.064Y-116.69
X331.351Y-100.227
X340.922Y-124.898
X347.294Y-100.517
X348.343Y-129.528
X349.828Y-110.22
X352.78Y-110.954
X362.831Y-143.105
X363.341Y-138.634
X367.366Y-128.36
T2
X72.721Y-129.192
X73.129Y-144.394
X78.8Y-102.805
X84.936Y-137.005
X85.755Y-112.397
X91.118Y-126.327
X91.861Y-146.309
X103.92Y-125.378
X106.206Y-102.309
X108.024Y-118.966
X109.573Y-135.834
X123.895Y-131.121
X128.138Y-110.121
X128.138Y-93.121
X128.219Y-127.309
X141.513Y-90.171
X146.138Y-118.121
X146.138Y-135.121
X146.138Y-101.121
X159.513Y-101.136
X160.513Y-146.171
X164.138Y-120.121
X164.138Y-103.121
X164.361Y-137.309
X170.649Y-160.079
X173.011Y-144.199
X189.675Y-133.229
X189.675Y-133.229
T4
X186.585Y-111.579
X186.585Y-113.579
X250.771Y-111.737
X250.771Y-113.737
T5
X177.045Y-107.287
X178.95Y-107.287
X184.03Y-92.047
X187.205Y-97.762
X248.963Y-107.355
X250.868Y-107.355
X255.948Y-92.115
X259.123Y-97.83
T6
X175.179Y-105.699
X190.34Y-90.459
X247.098Y-105.768
X262.259Y-90.528
T8
X63.845Y-129.245
X67.089Y-145.932
X79.225Y-114.031
X82.468Y-130.718
X85.712Y-147.406
X100.008Y-102.749
X101.637Y-119.671
X103.267Y-136.592
X121.788Y-93.271
X121.788Y-127.271
X121.788Y-110.271
X139.788Y-118.271
X139.788Y-135.271
X139.788Y-101.271
X157.788Y-120.271
X157.788Y-137.271
X157.788Y-103.271
X158.788Y-157.271
X179.805Y-160.891
X197.392Y-173.145
X234.483Y-181.462
X248.831Y-165.612
X268.678Y-157.298
X269.678Y-103.298
X269.678Y-137.298
X269.678Y-120.298
X287.678Y-118.298
X287.678Y-101.298
X287.678Y-135.298
X305.678Y-127.298
X305.678Y-93.298
X305.678Y-110.298
X324.246Y-135.661
X325.875Y-118.739
X327.504Y-101.817
X341.938Y-145.524
X345.182Y-128.837
X348.425Y-112.149
X360.561Y-144.051
X363.805Y-127.363
T3
X173.865Y-134.574G85X174.219Y-134.221
G05
X177.401Y-131.039G85X177.755Y-130.685
G05
X184.119Y-144.827G85X184.472Y-144.474
G05
X185.886Y-143.06G85X186.24Y-142.706
G05
X187.654Y-141.292G85X188.008Y-140.938
G05
T7
X176.517Y-141.256G85X177.083Y-141.822
G05
X184.437Y-133.337G85X185.002Y-133.903
G05
M30
