%TF.GenerationSoftware,KiCad,Pcbnew,9.0.6*%
%TF.CreationDate,2025-12-31T17:57:57+01:00*%
%TF.ProjectId,right,72696768-742e-46b6-9963-61645f706362,v1.0.0*%
%TF.SameCoordinates,Original*%
%TF.FileFunction,Soldermask,Top*%
%TF.FilePolarity,Negative*%
%FSLAX46Y46*%
G04 Gerber Fmt 4.6, Leading zero omitted, Abs format (unit mm)*
G04 Created by KiCad (PCBNEW 9.0.6) date 2025-12-31 17:57:57*
%MOMM*%
%LPD*%
G01*
G04 APERTURE LIST*
G04 Aperture macros list*
%AMRoundRect*
0 Rectangle with rounded corners*
0 $1 Rounding radius*
0 $2 $3 $4 $5 $6 $7 $8 $9 X,Y pos of 4 corners*
0 Add a 4 corners polygon primitive as box body*
4,1,4,$2,$3,$4,$5,$6,$7,$8,$9,$2,$3,0*
0 Add four circle primitives for the rounded corners*
1,1,$1+$1,$2,$3*
1,1,$1+$1,$4,$5*
1,1,$1+$1,$6,$7*
1,1,$1+$1,$8,$9*
0 Add four rect primitives between the rounded corners*
20,1,$1+$1,$2,$3,$4,$5,0*
20,1,$1+$1,$4,$5,$6,$7,0*
20,1,$1+$1,$6,$7,$8,$9,0*
20,1,$1+$1,$8,$9,$2,$3,0*%
%AMHorizOval*
0 Thick line with rounded ends*
0 $1 width*
0 $2 $3 position (X,Y) of the first rounded end (center of the circle)*
0 $4 $5 position (X,Y) of the second rounded end (center of the circle)*
0 Add line between two ends*
20,1,$1,$2,$3,$4,$5,0*
0 Add two circle primitives to create the rounded ends*
1,1,$1,$2,$3*
1,1,$1,$4,$5*%
%AMFreePoly0*
4,1,15,0.975355,0.935355,1.335355,0.575355,1.350000,0.540000,1.350000,-0.900000,1.335355,-0.935354,1.300000,-0.950000,-1.300000,-0.950000,-1.335355,-0.935354,-1.350000,-0.900000,-1.350000,0.540000,-1.335355,0.575355,-0.975355,0.935355,-0.940000,0.950000,0.940000,0.950000,0.975355,0.935355,0.975355,0.935355,$1*%
%AMFreePoly1*
4,1,15,1.335355,0.935354,1.350000,0.900000,1.350000,-0.540000,1.335355,-0.575355,0.975355,-0.935355,0.940000,-0.950000,-0.940000,-0.950000,-0.975355,-0.935355,-1.335355,-0.575355,-1.350000,-0.540000,-1.350000,0.900000,-1.335355,0.935354,-1.300000,0.950000,1.300000,0.950000,1.335355,0.935354,1.335355,0.935354,$1*%
G04 Aperture macros list end*
%ADD10C,0.600000*%
%ADD11C,2.000000*%
%ADD12C,3.100000*%
%ADD13C,5.100000*%
%ADD14FreePoly0,315.000000*%
%ADD15FreePoly1,315.000000*%
%ADD16HorizOval,1.200000X0.176777X0.176777X-0.176777X-0.176777X0*%
%ADD17C,1.300000*%
%ADD18C,1.000000*%
%ADD19RoundRect,0.260000X-0.665000X0.390000X-0.665000X-0.390000X0.665000X-0.390000X0.665000X0.390000X0*%
%ADD20O,1.850000X1.300000*%
%ADD21RoundRect,0.260000X0.665000X-0.390000X0.665000X0.390000X-0.665000X0.390000X-0.665000X-0.390000X0*%
G04 APERTURE END LIST*
D10*
%TO.C,*%
X244999971Y-144799991D03*
%TD*%
%TO.C,*%
X245000000Y-144000000D03*
%TD*%
%TO.C,*%
X244999999Y-141040007D03*
%TD*%
%TO.C,*%
X244999987Y-142519999D03*
%TD*%
%TO.C,*%
X244999988Y-141779997D03*
%TD*%
%TO.C,*%
X244999983Y-143260013D03*
%TD*%
%TO.C,*%
X244999971Y-140299991D03*
%TD*%
%TO.C,REF\u002A\u002A*%
X244999971Y-144799991D03*
X244999983Y-147760013D03*
X244999987Y-147019999D03*
X244999988Y-146279997D03*
X244999999Y-145540007D03*
%TD*%
%TO.C,REF\u002A\u002A*%
X192499971Y-145149994D03*
X192499999Y-145890010D03*
X192499988Y-146630000D03*
X192499987Y-147370002D03*
X192499983Y-148110016D03*
%TD*%
%TO.C,REF\u002A\u002A*%
X192499971Y-140649994D03*
X192499999Y-141390010D03*
X192499988Y-142130000D03*
X192499987Y-142870002D03*
X192499983Y-143610016D03*
X192500000Y-144350003D03*
%TD*%
D11*
%TO.C,S3*%
X77751210Y-109070591D03*
X79224687Y-114030560D03*
D12*
X82014839Y-102180455D03*
D13*
X83150155Y-108021136D03*
D12*
X87342759Y-103385989D03*
D11*
X88549100Y-106971681D03*
%TD*%
%TO.C,S17*%
X181781591Y-156108971D03*
X179805284Y-160890892D03*
D12*
X189431160Y-153437530D03*
D13*
X186637804Y-158691068D03*
D12*
X192813058Y-157727378D03*
D11*
X191494017Y-161273165D03*
%TD*%
%TO.C,S8*%
X121287927Y-105121324D03*
X121787929Y-110271320D03*
D13*
X126787927Y-105121321D03*
D12*
X126787929Y-99171319D03*
X131787930Y-101371320D03*
D11*
X132287927Y-105121318D03*
%TD*%
%TO.C,S2*%
X80994961Y-125758260D03*
X82468438Y-130718229D03*
D12*
X85258590Y-118868124D03*
D13*
X86393906Y-124708805D03*
D12*
X90586510Y-120073658D03*
D11*
X91792851Y-123659350D03*
%TD*%
%TO.C,S6*%
X99016574Y-97670525D03*
X100007876Y-102748887D03*
D12*
X103920968Y-91220761D03*
D13*
X104491250Y-97143369D03*
D12*
X109108812Y-92931403D03*
D11*
X109965926Y-96616213D03*
%TD*%
%TO.C,S15*%
X157287940Y-98121321D03*
X157787942Y-103271317D03*
D13*
X162787940Y-98121318D03*
D12*
X162787942Y-92171316D03*
X167787943Y-94371317D03*
D11*
X168287940Y-98121315D03*
%TD*%
%TO.C,S16*%
X158287920Y-152121324D03*
X158787922Y-157271320D03*
D13*
X163787920Y-152121321D03*
D12*
X163787922Y-146171319D03*
X168787923Y-148371320D03*
D11*
X169287920Y-152121318D03*
%TD*%
%TO.C,S18*%
X201381620Y-169850475D03*
X197391672Y-173144838D03*
D13*
X204457180Y-174410182D03*
D12*
X209389951Y-171082987D03*
X210362039Y-176458401D03*
D11*
X207532740Y-178969889D03*
%TD*%
%TO.C,S9*%
X121287925Y-88121310D03*
X121787927Y-93271306D03*
D13*
X126787925Y-88121307D03*
D12*
X126787927Y-82171305D03*
X131787928Y-84371306D03*
D11*
X132287925Y-88121304D03*
%TD*%
%TO.C,S11*%
X139287925Y-113121315D03*
X139787927Y-118271311D03*
D13*
X144787925Y-113121312D03*
D12*
X144787927Y-107171310D03*
X149787928Y-109371311D03*
D11*
X150287925Y-113121309D03*
%TD*%
%TO.C,S7*%
X121287925Y-122121315D03*
X121787927Y-127271311D03*
D13*
X126787925Y-122121312D03*
D12*
X126787927Y-116171310D03*
X131787928Y-118371311D03*
D11*
X132287925Y-122121309D03*
%TD*%
%TO.C,S4*%
X102275329Y-131513989D03*
X103266631Y-136592351D03*
D12*
X107179723Y-125064225D03*
D13*
X107750005Y-130986833D03*
D12*
X112367567Y-126774867D03*
D11*
X113224681Y-130459677D03*
%TD*%
%TO.C,S19*%
X65615382Y-140972349D03*
X67088859Y-145932318D03*
D12*
X69879011Y-134082213D03*
D13*
X71014327Y-139922894D03*
D12*
X75206931Y-135287747D03*
D11*
X76413272Y-138873439D03*
%TD*%
D14*
%TO.C,RE1*%
X176799957Y-141539290D03*
D15*
X184719555Y-133619694D03*
D16*
X187830821Y-141115027D03*
X186063054Y-142882793D03*
X184295288Y-144650561D03*
X174042248Y-134397509D03*
X177577774Y-130861975D03*
%TD*%
D17*
%TO.C,U?*%
X177044761Y-107286983D03*
X178949764Y-107286987D03*
X184029763Y-92046986D03*
X187204762Y-97761986D03*
%TD*%
D18*
%TO.C,PWR1*%
X190784754Y-128079495D03*
X190784755Y-131079498D03*
%TD*%
D11*
%TO.C,S5*%
X100645956Y-114592258D03*
X101637258Y-119670620D03*
D12*
X105550350Y-108142494D03*
D13*
X106120632Y-114065102D03*
D12*
X110738194Y-109853136D03*
D11*
X111595308Y-113537946D03*
%TD*%
D19*
%TO.C,JST1*%
X186584750Y-113579485D03*
D20*
X186584742Y-111579481D03*
%TD*%
D11*
%TO.C,S14*%
X157287919Y-115121316D03*
X157787921Y-120271312D03*
D13*
X162787919Y-115121313D03*
D12*
X162787921Y-109171311D03*
X167787922Y-111371312D03*
D11*
X168287919Y-115121310D03*
%TD*%
%TO.C,S10*%
X139287930Y-130121324D03*
X139787932Y-135271320D03*
D13*
X144787930Y-130121321D03*
D12*
X144787932Y-124171319D03*
X149787933Y-126371320D03*
D11*
X150287930Y-130121318D03*
%TD*%
%TO.C,S1*%
X84238706Y-142445913D03*
X85712183Y-147405882D03*
D12*
X88502335Y-135555777D03*
D13*
X89637651Y-141396458D03*
D12*
X93830255Y-136761311D03*
D11*
X95036596Y-140347003D03*
%TD*%
%TO.C,S12*%
X139287933Y-96121315D03*
X139787935Y-101271311D03*
D13*
X144787933Y-96121312D03*
D12*
X144787935Y-90171310D03*
X149787936Y-92371311D03*
D11*
X150287933Y-96121309D03*
%TD*%
%TO.C,S13*%
X157287931Y-132121323D03*
X157787933Y-137271319D03*
D13*
X162787931Y-132121320D03*
D12*
X162787933Y-126171318D03*
X167787934Y-128371319D03*
D11*
X168287931Y-132121317D03*
%TD*%
%TO.C,S20*%
X62371629Y-124284678D03*
X63845106Y-129244647D03*
D12*
X66635258Y-117394542D03*
D13*
X67770574Y-123235223D03*
D12*
X71963178Y-118600076D03*
D11*
X73169519Y-122185768D03*
%TD*%
D17*
%TO.C,U?*%
X248963335Y-107355471D03*
X250868338Y-107355475D03*
X255948337Y-92115474D03*
X259123336Y-97830474D03*
%TD*%
D11*
%TO.C,S39*%
X361052996Y-138900095D03*
X360561144Y-144050881D03*
D12*
X367587259Y-134108867D03*
D13*
X366451946Y-139949547D03*
D12*
X372075617Y-137222490D03*
D11*
X371850896Y-140998999D03*
%TD*%
%TO.C,S35*%
X269178340Y-98147973D03*
X269678340Y-103297974D03*
D12*
X274678339Y-92197973D03*
D13*
X274678340Y-98147973D03*
D12*
X279678336Y-94397973D03*
D11*
X280178340Y-98147973D03*
%TD*%
%TO.C,S23*%
X348917166Y-106998345D03*
X348425314Y-112149131D03*
D12*
X355451429Y-102207117D03*
D13*
X354316116Y-108047797D03*
D12*
X359939787Y-105320740D03*
D11*
X359715066Y-109097249D03*
%TD*%
%TO.C,S26*%
X327500339Y-96642871D03*
X327504433Y-101817084D03*
D12*
X333545301Y-91247417D03*
D13*
X332975019Y-97170023D03*
D12*
X338311422Y-93916517D03*
D11*
X338449699Y-97697175D03*
%TD*%
%TO.C,S40*%
X364296743Y-122212437D03*
X363804891Y-127363223D03*
D12*
X370831006Y-117421209D03*
D13*
X369695693Y-123261889D03*
D12*
X375319364Y-120534832D03*
D11*
X375094643Y-124311341D03*
%TD*%
%TO.C,S33*%
X269178340Y-132147978D03*
X269678340Y-137297979D03*
D12*
X274678339Y-126197978D03*
D13*
X274678340Y-132147978D03*
D12*
X279678336Y-128397978D03*
D11*
X280178340Y-132147978D03*
%TD*%
%TO.C,S28*%
X305178343Y-105147972D03*
X305678343Y-110297973D03*
D12*
X310678342Y-99197972D03*
D13*
X310678343Y-105147972D03*
D12*
X315678339Y-101397972D03*
D11*
X316178343Y-105147972D03*
%TD*%
%TO.C,S34*%
X269178342Y-115147971D03*
X269678342Y-120297972D03*
D12*
X274678341Y-109197971D03*
D13*
X274678342Y-115147971D03*
D12*
X279678338Y-111397971D03*
D11*
X280178342Y-115147971D03*
%TD*%
%TO.C,S36*%
X268178341Y-152147975D03*
X268678341Y-157297976D03*
D12*
X273678340Y-146197975D03*
D13*
X273678341Y-152147975D03*
D12*
X278678337Y-148397975D03*
D11*
X279178341Y-152147975D03*
%TD*%
%TO.C,S37*%
X245972244Y-161299826D03*
X248831498Y-165612270D03*
D13*
X250828457Y-158717733D03*
D12*
X248035104Y-153464194D03*
X253482676Y-153059320D03*
D11*
X255684670Y-156135640D03*
%TD*%
%TO.C,S32*%
X287178339Y-96147976D03*
X287678339Y-101297977D03*
D12*
X292678338Y-90197976D03*
D13*
X292678339Y-96147976D03*
D12*
X297678335Y-92397976D03*
D11*
X298178339Y-96147976D03*
%TD*%
%TO.C,S31*%
X287178338Y-113147970D03*
X287678338Y-118297971D03*
D12*
X292678337Y-107197970D03*
D13*
X292678338Y-113147970D03*
D12*
X297678334Y-109397970D03*
D11*
X298178338Y-113147970D03*
%TD*%
%TO.C,S24*%
X324241583Y-130486337D03*
X324245677Y-135660550D03*
D12*
X330286545Y-125090883D03*
D13*
X329716263Y-131013489D03*
D12*
X335052666Y-127759983D03*
D11*
X335190943Y-131540641D03*
%TD*%
%TO.C,S22*%
X345673407Y-123686005D03*
X345181555Y-128836791D03*
D12*
X352207670Y-118894777D03*
D13*
X351072357Y-124735457D03*
D12*
X356696028Y-122008400D03*
D11*
X356471307Y-125784909D03*
%TD*%
D21*
%TO.C,JST1*%
X250771053Y-111736989D03*
D20*
X250771057Y-113736987D03*
%TD*%
D11*
%TO.C,S30*%
X287178340Y-130147972D03*
X287678340Y-135297973D03*
D12*
X292678339Y-124197972D03*
D13*
X292678340Y-130147972D03*
D12*
X297678336Y-126397972D03*
D11*
X298178340Y-130147972D03*
%TD*%
%TO.C,S38*%
X229933517Y-178996539D03*
X234482658Y-181461862D03*
D12*
X228076304Y-171109639D03*
D13*
X233009078Y-174436832D03*
D12*
X232696152Y-168194670D03*
D11*
X236084639Y-169877125D03*
%TD*%
%TO.C,S29*%
X305178335Y-88147983D03*
X305678335Y-93297984D03*
D12*
X310678334Y-82197983D03*
D13*
X310678335Y-88147983D03*
D12*
X315678331Y-84397983D03*
D11*
X316178335Y-88147983D03*
%TD*%
%TO.C,S21*%
X342429663Y-140373675D03*
X341937811Y-145524461D03*
D12*
X348963926Y-135582447D03*
D13*
X347828613Y-141423127D03*
D12*
X353452284Y-138696070D03*
D11*
X353227563Y-142472579D03*
%TD*%
%TO.C,S25*%
X325870966Y-113564602D03*
X325875060Y-118738815D03*
D12*
X331915928Y-108169148D03*
D13*
X331345646Y-114091754D03*
D12*
X336682049Y-110838248D03*
D11*
X336820326Y-114618906D03*
%TD*%
D18*
%TO.C,PWR1*%
X246746051Y-129736992D03*
X246746050Y-126736991D03*
%TD*%
D11*
%TO.C,S27*%
X305178333Y-122147968D03*
X305678333Y-127297969D03*
D12*
X310678332Y-116197968D03*
D13*
X310678333Y-122147968D03*
D12*
X315678329Y-118397968D03*
D11*
X316178333Y-122147968D03*
%TD*%
M02*
