%TF.GenerationSoftware,KiCad,Pcbnew,9.0.6*%
%TF.CreationDate,2025-12-30T20:42:03+01:00*%
%TF.ProjectId,right,72696768-742e-46b6-9963-61645f706362,v1.0.0*%
%TF.SameCoordinates,Original*%
%TF.FileFunction,Soldermask,Bot*%
%TF.FilePolarity,Negative*%
%FSLAX46Y46*%
G04 Gerber Fmt 4.6, Leading zero omitted, Abs format (unit mm)*
G04 Created by KiCad (PCBNEW 9.0.6) date 2025-12-30 20:42:03*
%MOMM*%
%LPD*%
G01*
G04 APERTURE LIST*
G04 Aperture macros list*
%AMRoundRect*
0 Rectangle with rounded corners*
0 $1 Rounding radius*
0 $2 $3 $4 $5 $6 $7 $8 $9 X,Y pos of 4 corners*
0 Add a 4 corners polygon primitive as box body*
4,1,4,$2,$3,$4,$5,$6,$7,$8,$9,$2,$3,0*
0 Add four circle primitives for the rounded corners*
1,1,$1+$1,$2,$3*
1,1,$1+$1,$4,$5*
1,1,$1+$1,$6,$7*
1,1,$1+$1,$8,$9*
0 Add four rect primitives between the rounded corners*
20,1,$1+$1,$2,$3,$4,$5,0*
20,1,$1+$1,$4,$5,$6,$7,0*
20,1,$1+$1,$6,$7,$8,$9,0*
20,1,$1+$1,$8,$9,$2,$3,0*%
G04 Aperture macros list end*
%ADD10O,2.850000X1.900000*%
%ADD11RoundRect,0.142857X-0.457143X1.157143X-0.457143X-1.157143X0.457143X-1.157143X0.457143X1.157143X0*%
%ADD12C,2.200000*%
%ADD13RoundRect,0.142857X-1.157143X-0.457143X1.157143X-0.457143X1.157143X0.457143X-1.157143X0.457143X0*%
%ADD14RoundRect,0.050000X-0.450000X-0.600000X0.450000X-0.600000X0.450000X0.600000X-0.450000X0.600000X0*%
%ADD15RoundRect,0.050000X-0.505436X-0.554107X0.390421X-0.640368X0.505436X0.554107X-0.390421X0.640368X0*%
%ADD16C,2.000000*%
%ADD17C,3.100000*%
%ADD18C,5.100000*%
%ADD19RoundRect,0.050000X-1.524167X-1.028064X1.028064X-1.524167X1.524167X1.028064X-1.028064X1.524167X0*%
%ADD20RoundRect,0.050000X-1.300000X-1.300000X1.300000X-1.300000X1.300000X1.300000X-1.300000X1.300000X0*%
%ADD21RoundRect,0.050000X-1.418615X-1.169416X1.169416X-1.418615X1.418615X1.169416X-1.169416X1.418615X0*%
%ADD22RoundRect,0.050000X-0.556218X-0.503112X0.327247X-0.674840X0.556218X0.503112X-0.327247X0.674840X0*%
%ADD23RoundRect,0.050000X-0.115643X-0.741031X0.679009X-0.318506X0.115643X0.741031X-0.679009X0.318506X0*%
%ADD24RoundRect,0.050000X-0.500000X0.775000X-0.500000X-0.775000X0.500000X-0.775000X0.500000X0.775000X0*%
%ADD25RoundRect,0.050000X-0.537519X-1.758145X1.758145X-0.537519X0.537519X1.758145X-1.758145X0.537519X0*%
%ADD26RoundRect,0.260000X0.665000X-0.390000X0.665000X0.390000X-0.665000X0.390000X-0.665000X-0.390000X0*%
%ADD27O,1.850000X1.300000*%
%ADD28RoundRect,0.050000X0.245786X-0.708583X0.749059X0.037551X-0.245786X0.708583X-0.749059X-0.037551X0*%
%ADD29RoundRect,0.050000X0.350798X-1.804700X1.804700X0.350798X-0.350798X1.804700X-1.804700X-0.350798X0*%
%ADD30RoundRect,0.050000X-0.400000X0.500000X-0.400000X-0.500000X0.400000X-0.500000X0.400000X0.500000X0*%
%ADD31C,1.000000*%
%ADD32RoundRect,0.050000X-0.750000X0.350000X-0.750000X-0.350000X0.750000X-0.350000X0.750000X0.350000X0*%
%ADD33RoundRect,0.050000X0.750000X-0.350000X0.750000X0.350000X-0.750000X0.350000X-0.750000X-0.350000X0*%
G04 APERTURE END LIST*
D10*
%TO.C,U?*%
X149944305Y-94950002D03*
X149944305Y-100030010D03*
X149944305Y-102570011D03*
X149944306Y-97490003D03*
X149944307Y-89870008D03*
D11*
X152285003Y-104157503D03*
X154190006Y-104157507D03*
D10*
X166055703Y-100030004D03*
X166055704Y-92410009D03*
X166055704Y-97490000D03*
X166055705Y-87330001D03*
X166055705Y-89870002D03*
X166055705Y-94950010D03*
X166055706Y-102570002D03*
X149944306Y-92410012D03*
X149944304Y-87330010D03*
D12*
X159270005Y-88917506D03*
D13*
X162445004Y-94632506D03*
%TD*%
D14*
%TO.C,D34*%
X179350010Y-116950005D03*
X182650010Y-116950005D03*
%TD*%
D15*
%TO.C,D25*%
X235531865Y-116000160D03*
X238816673Y-116316448D03*
%TD*%
D16*
%TO.C,S39*%
X264374664Y-135702127D03*
X263882812Y-140852913D03*
D17*
X270908927Y-130910899D03*
D18*
X269773614Y-136751579D03*
D17*
X275397285Y-134024522D03*
D16*
X275172564Y-137801031D03*
D19*
X267694099Y-130285997D03*
X278612113Y-134649423D03*
%TD*%
D16*
%TO.C,S35*%
X172500008Y-94950005D03*
X173000008Y-100100006D03*
D17*
X178000007Y-89000005D03*
D18*
X178000008Y-94950005D03*
D17*
X183000004Y-91200005D03*
D16*
X183500008Y-94950005D03*
D20*
X174725009Y-89000005D03*
X186275007Y-91200005D03*
%TD*%
D16*
%TO.C,S23*%
X252238834Y-103800377D03*
X251746982Y-108951163D03*
D17*
X258773097Y-99009149D03*
D18*
X257637784Y-104849829D03*
D17*
X263261455Y-102122772D03*
D16*
X263036734Y-105899281D03*
D19*
X255558269Y-98384247D03*
X266476283Y-102747673D03*
%TD*%
D16*
%TO.C,S26*%
X230822007Y-93444903D03*
X230826101Y-98619116D03*
D17*
X236866969Y-88049449D03*
D18*
X236296687Y-93972055D03*
D17*
X241633090Y-90718549D03*
D16*
X241771367Y-94499207D03*
D21*
X233607047Y-87735552D03*
X244893013Y-91032443D03*
%TD*%
D16*
%TO.C,S40*%
X267618411Y-119014469D03*
X267126559Y-124165255D03*
D17*
X274152674Y-114223241D03*
D18*
X273017361Y-120063921D03*
D17*
X278641032Y-117336864D03*
D16*
X278416311Y-121113373D03*
D19*
X270937846Y-113598339D03*
X281855860Y-117961765D03*
%TD*%
D22*
%TO.C,D23*%
X258008929Y-110015563D03*
X261248299Y-110645233D03*
%TD*%
%TO.C,D21*%
X251521432Y-143390876D03*
X254760802Y-144020546D03*
%TD*%
D14*
%TO.C,D31*%
X197350007Y-114950000D03*
X200650007Y-114950000D03*
%TD*%
D23*
%TO.C,D37*%
X157689465Y-159300715D03*
X160603191Y-157751461D03*
%TD*%
D16*
%TO.C,S33*%
X172500008Y-128950010D03*
X173000008Y-134100011D03*
D17*
X178000007Y-123000010D03*
D18*
X178000008Y-128950010D03*
D17*
X183000004Y-125200010D03*
D16*
X183500008Y-128950010D03*
D20*
X174725009Y-123000010D03*
X186275007Y-125200010D03*
%TD*%
D16*
%TO.C,S28*%
X208500011Y-101950004D03*
X209000011Y-107100005D03*
D17*
X214000010Y-96000004D03*
D18*
X214000011Y-101950004D03*
D17*
X219000007Y-98200004D03*
D16*
X219500011Y-101950004D03*
D20*
X210725012Y-96000004D03*
X222275010Y-98200004D03*
%TD*%
D16*
%TO.C,S34*%
X172500010Y-111950003D03*
X173000010Y-117100004D03*
D17*
X178000009Y-106000003D03*
D18*
X178000010Y-111950003D03*
D17*
X183000006Y-108200003D03*
D16*
X183500010Y-111950003D03*
D20*
X174725011Y-106000003D03*
X186275009Y-108200003D03*
%TD*%
D16*
%TO.C,S36*%
X171500009Y-148950007D03*
X172000009Y-154100008D03*
D17*
X177000008Y-143000007D03*
D18*
X177000009Y-148950007D03*
D17*
X182000005Y-145200007D03*
D16*
X182500009Y-148950007D03*
D20*
X173725010Y-143000007D03*
X185275008Y-145200007D03*
%TD*%
D14*
%TO.C,D35*%
X179350008Y-99950001D03*
X182650008Y-99950001D03*
%TD*%
D24*
%TO.C,RST1*%
X149150008Y-117575012D03*
X150850009Y-117575013D03*
X149150009Y-112325011D03*
X150850010Y-112325012D03*
%TD*%
D16*
%TO.C,S37*%
X149293912Y-158101858D03*
X152153166Y-162414302D03*
D18*
X154150125Y-155519765D03*
D17*
X151356772Y-150266226D03*
X156804344Y-149861352D03*
D16*
X159006338Y-152937672D03*
D25*
X148465116Y-151803746D03*
X159695998Y-148323835D03*
%TD*%
D14*
%TO.C,D27*%
X215350011Y-123950007D03*
X218650011Y-123950007D03*
%TD*%
%TO.C,D30*%
X197350003Y-131950004D03*
X200650003Y-131950004D03*
%TD*%
%TO.C,D33*%
X179350003Y-133949996D03*
X182650003Y-133949996D03*
%TD*%
D16*
%TO.C,S32*%
X190500007Y-92950008D03*
X191000007Y-98100009D03*
D17*
X196000006Y-87000008D03*
D18*
X196000007Y-92950008D03*
D17*
X201000003Y-89200008D03*
D16*
X201500007Y-92950008D03*
D20*
X192725008Y-87000008D03*
X204275006Y-89200008D03*
%TD*%
D16*
%TO.C,S31*%
X190500006Y-109950002D03*
X191000006Y-115100003D03*
D17*
X196000005Y-104000002D03*
D18*
X196000006Y-109950002D03*
D17*
X201000002Y-106200002D03*
D16*
X201500006Y-109950002D03*
D20*
X192725007Y-104000002D03*
X204275005Y-106200002D03*
%TD*%
D16*
%TO.C,S24*%
X227563251Y-127288369D03*
X227567345Y-132462582D03*
D17*
X233608213Y-121892915D03*
D18*
X233037931Y-127815521D03*
D17*
X238374334Y-124562015D03*
D16*
X238512611Y-128342673D03*
D21*
X230348291Y-121579018D03*
X241634257Y-124875909D03*
%TD*%
D15*
%TO.C,D24*%
X233902483Y-132921886D03*
X237187291Y-133238174D03*
%TD*%
D16*
%TO.C,S22*%
X248995075Y-120488037D03*
X248503223Y-125638823D03*
D17*
X255529338Y-115696809D03*
D18*
X254394025Y-121537489D03*
D17*
X260017696Y-118810432D03*
D16*
X259792975Y-122586941D03*
D19*
X252314510Y-115071907D03*
X263232524Y-119435333D03*
%TD*%
D22*
%TO.C,D40*%
X273388515Y-125229637D03*
X276627885Y-125859307D03*
%TD*%
D14*
%TO.C,D28*%
X215350007Y-106950001D03*
X218650007Y-106950001D03*
%TD*%
D26*
%TO.C,JST1*%
X154092721Y-108539021D03*
D27*
X154092725Y-110539019D03*
%TD*%
D14*
%TO.C,D29*%
X215350007Y-89950002D03*
X218650007Y-89950002D03*
%TD*%
D16*
%TO.C,S30*%
X190500008Y-126950004D03*
X191000008Y-132100005D03*
D17*
X196000007Y-121000004D03*
D18*
X196000008Y-126950004D03*
D17*
X201000004Y-123200004D03*
D16*
X201500008Y-126950004D03*
D20*
X192725009Y-121000004D03*
X204275007Y-123200004D03*
%TD*%
D28*
%TO.C,D38*%
X141230844Y-172915631D03*
X143076172Y-170179805D03*
%TD*%
D16*
%TO.C,S38*%
X133255185Y-175798571D03*
X137804326Y-178263894D03*
D17*
X131397972Y-167911671D03*
D18*
X136330746Y-171238864D03*
D17*
X136017820Y-164996702D03*
D16*
X139406307Y-166679157D03*
D29*
X129566615Y-170626764D03*
X137849177Y-162281604D03*
%TD*%
D16*
%TO.C,S29*%
X208500003Y-84950015D03*
X209000003Y-90100016D03*
D17*
X214000002Y-79000015D03*
D18*
X214000003Y-84950015D03*
D17*
X218999999Y-81200015D03*
D16*
X219500003Y-84950015D03*
D20*
X210725004Y-79000015D03*
X222275002Y-81200015D03*
%TD*%
D15*
%TO.C,D26*%
X237161244Y-99078422D03*
X240446052Y-99394710D03*
%TD*%
D16*
%TO.C,S21*%
X245751331Y-137175707D03*
X245259479Y-142326493D03*
D17*
X252285594Y-132384479D03*
D18*
X251150281Y-138225159D03*
D17*
X256773952Y-135498102D03*
D16*
X256549231Y-139274611D03*
D19*
X249070766Y-131759577D03*
X259988780Y-136123003D03*
%TD*%
D16*
%TO.C,S25*%
X229192634Y-110366634D03*
X229196728Y-115540847D03*
D17*
X235237596Y-104971180D03*
D18*
X234667314Y-110893786D03*
D17*
X240003717Y-107640280D03*
D16*
X240141994Y-111420938D03*
D21*
X231977674Y-104657283D03*
X243263640Y-107954174D03*
%TD*%
D22*
%TO.C,D22*%
X254765178Y-126703221D03*
X258004548Y-127332891D03*
%TD*%
D30*
%TO.C,PWR1*%
X151177729Y-121389019D03*
X151177722Y-128689024D03*
D31*
X150067719Y-126539024D03*
X150067718Y-123539023D03*
D30*
X148967723Y-128689011D03*
X148967720Y-121389015D03*
D32*
X151827720Y-127289020D03*
D33*
X151827717Y-124289017D03*
D32*
X151827719Y-122789018D03*
%TD*%
D14*
%TO.C,D32*%
X197350006Y-97949999D03*
X200650006Y-97949999D03*
%TD*%
%TO.C,D36*%
X178350003Y-153950007D03*
X181650003Y-153950007D03*
%TD*%
D22*
%TO.C,D39*%
X270144763Y-141917309D03*
X273384133Y-142546979D03*
%TD*%
D16*
%TO.C,S27*%
X208500001Y-118950000D03*
X209000001Y-124100001D03*
D17*
X214000000Y-113000000D03*
D18*
X214000001Y-118950000D03*
D17*
X218999997Y-115200000D03*
D16*
X219500001Y-118950000D03*
D20*
X210725002Y-113000000D03*
X222275000Y-115200000D03*
%TD*%
M02*
