%TF.GenerationSoftware,KiCad,Pcbnew,9.0.6*%
%TF.CreationDate,2025-12-30T20:42:03+01:00*%
%TF.ProjectId,right,72696768-742e-46b6-9963-61645f706362,v1.0.0*%
%TF.SameCoordinates,Original*%
%TF.FileFunction,Profile,NP*%
%FSLAX46Y46*%
G04 Gerber Fmt 4.6, Leading zero omitted, Abs format (unit mm)*
G04 Created by KiCad (PCBNEW 9.0.6) date 2025-12-30 20:42:03*
%MOMM*%
%LPD*%
G01*
G04 APERTURE LIST*
%TA.AperFunction,Profile*%
%ADD10C,0.150000*%
%TD*%
G04 APERTURE END LIST*
D10*
X249302785Y-92533142D02*
G75*
G02*
X247693621Y-90378204I381615J1963242D01*
G01*
X207000009Y-135450006D02*
X207000008Y-131450007D01*
X223072989Y-137404569D02*
G75*
G02*
X221273822Y-135222079I191711J1990869D01*
G01*
X224999997Y-80519073D02*
X225000010Y-76450007D01*
X148300000Y-86450007D02*
G75*
G02*
X150300002Y-84450000I1999900J107D01*
G01*
X188990006Y-157450000D02*
G75*
G02*
X186990002Y-159450006I-2000006J0D01*
G01*
X278949633Y-147194313D02*
X285437138Y-113818984D01*
X139345546Y-151550266D02*
G75*
G02*
X139696214Y-151313060I1289454J-1528434D01*
G01*
X188990006Y-157450000D02*
X188990006Y-139450006D01*
X185000006Y-82450000D02*
G75*
G02*
X183000001Y-84450006I-2000006J0D01*
G01*
X133621299Y-156478731D02*
X122593121Y-172828679D01*
X221618637Y-131641695D02*
X221273888Y-135222085D01*
X268475914Y-96260026D02*
G75*
G02*
X270057576Y-98604906I-381614J-1963274D01*
G01*
X140002909Y-184571733D02*
X149819485Y-170018048D01*
X185000006Y-82450000D02*
X185000005Y-82371005D01*
X133621299Y-156478731D02*
G75*
G02*
X133989773Y-156068426I1657901J-1118269D01*
G01*
X203000005Y-76450004D02*
X203000001Y-78371002D01*
X240312146Y-146814956D02*
X257981429Y-150249523D01*
X207000008Y-131450007D02*
G75*
G02*
X209000016Y-129450008I1999992J7D01*
G01*
X223072989Y-137404569D02*
X237599303Y-138803292D01*
X270112727Y-108802791D02*
G75*
G02*
X268531092Y-106457915I381673J1963291D01*
G01*
X140002909Y-184571733D02*
G75*
G02*
X137226414Y-185111473I-1658109J1118333D01*
G01*
X169978036Y-159660758D02*
G75*
G02*
X170871679Y-159450018I893564J-1789042D01*
G01*
X148300008Y-145536623D02*
G75*
G02*
X147238931Y-147302491I-1999808J-77D01*
G01*
X189000011Y-139449997D02*
X189000008Y-137450009D01*
X262861975Y-146104622D02*
X276604765Y-148775944D01*
X240312146Y-146814956D02*
G75*
G02*
X238730535Y-144470093I381654J1963256D01*
G01*
X150583926Y-169347177D02*
X169978036Y-159660758D01*
X188990006Y-139450006D02*
X189000011Y-139449997D01*
X278949633Y-147194313D02*
G75*
G02*
X276604753Y-148776007I-1963233J381513D01*
G01*
X223000008Y-74450001D02*
X205000004Y-74450002D01*
X237599303Y-138803292D02*
G75*
G02*
X239370874Y-141175704I-191703J-1990808D01*
G01*
X260326292Y-148667884D02*
X260517108Y-147686251D01*
X185000005Y-82371005D02*
G75*
G02*
X187000006Y-80371005I1999995J5D01*
G01*
X226808321Y-82509864D02*
X246261622Y-84383003D01*
X223000008Y-74450001D02*
G75*
G02*
X224999999Y-76450007I-108J-2000099D01*
G01*
X283855507Y-111474112D02*
X270112727Y-108802791D01*
X239370861Y-141175701D02*
X238730495Y-144470085D01*
X149819485Y-170018048D02*
G75*
G02*
X150583922Y-169347171I1657815J-1118052D01*
G01*
X246261621Y-84383003D02*
G75*
G02*
X248060701Y-86565478I-191721J-1990797D01*
G01*
X150300002Y-84450008D02*
X183000001Y-84450003D01*
X260517108Y-147686251D02*
G75*
G02*
X262861965Y-146104672I1963292J-381749D01*
G01*
X148300000Y-86450007D02*
X148300008Y-145536623D01*
X247693606Y-90378203D02*
X248060735Y-86565481D01*
X147238945Y-147302517D02*
X139696218Y-151313067D01*
X260326292Y-148667884D02*
G75*
G02*
X257981423Y-150249554I-1963192J381484D01*
G01*
X249302785Y-92533142D02*
X268475914Y-96260026D01*
X209000016Y-129449997D02*
X219627842Y-129450004D01*
X203000005Y-76450004D02*
G75*
G02*
X205000004Y-74450005I1999895J104D01*
G01*
X170871679Y-159450000D02*
X186990002Y-159450013D01*
X226808321Y-82509864D02*
G75*
G02*
X225000020Y-80519073I191779J1990864D01*
G01*
X203000001Y-78371002D02*
G75*
G02*
X201000006Y-80371001I-2000001J2D01*
G01*
X139345546Y-151550266D02*
X133989764Y-156068415D01*
X268531087Y-106457914D02*
X270057559Y-98604903D01*
X201000006Y-80371000D02*
X187000006Y-80371009D01*
X283855507Y-111474112D02*
G75*
G02*
X285437113Y-113818979I-381707J-1963288D01*
G01*
X189000008Y-137450009D02*
X205000003Y-137450002D01*
X123132812Y-175605147D02*
X137226449Y-185111422D01*
X219627842Y-129450004D02*
G75*
G02*
X221618688Y-131641700I58J-1999996D01*
G01*
X123132812Y-175605147D02*
G75*
G02*
X122593158Y-172828704I1118388J1658047D01*
G01*
X207000009Y-135450006D02*
G75*
G02*
X205000003Y-137450009I-2000009J6D01*
G01*
M02*
