M48
; DRILL file {KiCad 9.0.6} date 2025-12-30T20:41:02+0100
; FORMAT={-:-/ absolute / metric / decimal}
; #@! TF.CreationDate,2025-12-30T20:41:02+01:00
; #@! TF.GenerationSoftware,Kicad,Pcbnew,9.0.6
; #@! TF.FileFunction,NonPlated,1,2,NPTH
FMAT,2
METRIC
; #@! TA.AperFunction,NonPlated,NPTH,ComponentDrill
T1C0.900
; #@! TA.AperFunction,NonPlated,NPTH,ComponentDrill
T2C1.900
; #@! TA.AperFunction,NonPlated,NPTH,ComponentDrill
T3C3.000
; #@! TA.AperFunction,NonPlated,NPTH,ComponentDrill
T4C5.000
%
G90
G05
T1
X150.068Y-123.539
X150.068Y-126.539
T2
X133.255Y-175.799
X139.406Y-166.679
X149.294Y-158.102
X159.006Y-152.938
X171.5Y-148.95
X172.5Y-94.95
X172.5Y-128.95
X172.5Y-111.95
X182.5Y-148.95
X183.5Y-94.95
X183.5Y-128.95
X183.5Y-111.95
X190.5Y-109.95
X190.5Y-92.95
X190.5Y-126.95
X201.5Y-109.95
X201.5Y-92.95
X201.5Y-126.95
X208.5Y-118.95
X208.5Y-84.95
X208.5Y-101.95
X219.5Y-118.95
X219.5Y-84.95
X219.5Y-101.95
X227.563Y-127.288
X229.193Y-110.367
X230.822Y-93.445
X238.513Y-128.343
X240.142Y-111.421
X241.771Y-94.499
X245.751Y-137.176
X248.995Y-120.488
X252.239Y-103.8
X256.549Y-139.275
X259.793Y-122.587
X263.037Y-105.899
X264.375Y-135.702
X267.618Y-119.014
X275.173Y-137.801
X278.416Y-121.113
T3
X131.398Y-167.912
X136.018Y-164.997
X151.357Y-150.266
X156.804Y-149.861
X177.0Y-143.0
X178.0Y-89.0
X178.0Y-123.0
X178.0Y-106.0
X182.0Y-145.2
X183.0Y-91.2
X183.0Y-125.2
X183.0Y-108.2
X196.0Y-104.0
X196.0Y-87.0
X196.0Y-121.0
X201.0Y-106.2
X201.0Y-89.2
X201.0Y-123.2
X214.0Y-113.0
X214.0Y-79.0
X214.0Y-96.0
X219.0Y-115.2
X219.0Y-81.2
X219.0Y-98.2
X233.608Y-121.893
X235.238Y-104.971
X236.867Y-88.049
X238.374Y-124.562
X240.004Y-107.64
X241.633Y-90.719
X252.286Y-132.384
X255.529Y-115.697
X256.774Y-135.498
X258.773Y-99.009
X260.018Y-118.81
X263.261Y-102.123
X270.909Y-130.911
X274.153Y-114.223
X275.397Y-134.025
X278.641Y-117.337
T4
X136.331Y-171.239
X154.15Y-155.52
X177.0Y-148.95
X178.0Y-94.95
X178.0Y-128.95
X178.0Y-111.95
X196.0Y-109.95
X196.0Y-92.95
X196.0Y-126.95
X214.0Y-118.95
X214.0Y-84.95
X214.0Y-101.95
X233.038Y-127.816
X234.667Y-110.894
X236.297Y-93.972
X251.15Y-138.225
X254.394Y-121.537
X257.638Y-104.85
X269.774Y-136.752
X273.017Y-120.064
M30
