%TF.GenerationSoftware,KiCad,Pcbnew,9.0.6*%
%TF.CreationDate,2025-12-30T20:42:03+01:00*%
%TF.ProjectId,right,72696768-742e-46b6-9963-61645f706362,v1.0.0*%
%TF.SameCoordinates,Original*%
%TF.FileFunction,Legend,Top*%
%TF.FilePolarity,Positive*%
%FSLAX46Y46*%
G04 Gerber Fmt 4.6, Leading zero omitted, Abs format (unit mm)*
G04 Created by KiCad (PCBNEW 9.0.6) date 2025-12-30 20:42:03*
%MOMM*%
%LPD*%
G01*
G04 APERTURE LIST*
%ADD10C,0.100000*%
%ADD11C,0.127000*%
G04 APERTURE END LIST*
D10*
X161766431Y-95864212D02*
X161837859Y-95888022D01*
X161837859Y-95888022D02*
X161861669Y-95911831D01*
X161861669Y-95911831D02*
X161885478Y-95959450D01*
X161885478Y-95959450D02*
X161885478Y-96030879D01*
X161885478Y-96030879D02*
X161861669Y-96078498D01*
X161861669Y-96078498D02*
X161837859Y-96102308D01*
X161837859Y-96102308D02*
X161790240Y-96126117D01*
X161790240Y-96126117D02*
X161599764Y-96126117D01*
X161599764Y-96126117D02*
X161599764Y-95626117D01*
X161599764Y-95626117D02*
X161766431Y-95626117D01*
X161766431Y-95626117D02*
X161814050Y-95649927D01*
X161814050Y-95649927D02*
X161837859Y-95673736D01*
X161837859Y-95673736D02*
X161861669Y-95721355D01*
X161861669Y-95721355D02*
X161861669Y-95768974D01*
X161861669Y-95768974D02*
X161837859Y-95816593D01*
X161837859Y-95816593D02*
X161814050Y-95840403D01*
X161814050Y-95840403D02*
X161766431Y-95864212D01*
X161766431Y-95864212D02*
X161599764Y-95864212D01*
X162075955Y-95983260D02*
X162314050Y-95983260D01*
X162028336Y-96126117D02*
X162195002Y-95626117D01*
X162195002Y-95626117D02*
X162361669Y-96126117D01*
X162456907Y-95626117D02*
X162742621Y-95626117D01*
X162599764Y-96126117D02*
X162599764Y-95626117D01*
X162909287Y-95935641D02*
X163290240Y-95935641D01*
X163099763Y-96126117D02*
X163099763Y-95745165D01*
X158996194Y-90326113D02*
X158829528Y-90088018D01*
X158710480Y-90326113D02*
X158710480Y-89826113D01*
X158710480Y-89826113D02*
X158900956Y-89826113D01*
X158900956Y-89826113D02*
X158948575Y-89849923D01*
X158948575Y-89849923D02*
X158972385Y-89873732D01*
X158972385Y-89873732D02*
X158996194Y-89921351D01*
X158996194Y-89921351D02*
X158996194Y-89992780D01*
X158996194Y-89992780D02*
X158972385Y-90040399D01*
X158972385Y-90040399D02*
X158948575Y-90064208D01*
X158948575Y-90064208D02*
X158900956Y-90088018D01*
X158900956Y-90088018D02*
X158710480Y-90088018D01*
X159186671Y-90302304D02*
X159258099Y-90326113D01*
X159258099Y-90326113D02*
X159377147Y-90326113D01*
X159377147Y-90326113D02*
X159424766Y-90302304D01*
X159424766Y-90302304D02*
X159448575Y-90278494D01*
X159448575Y-90278494D02*
X159472385Y-90230875D01*
X159472385Y-90230875D02*
X159472385Y-90183256D01*
X159472385Y-90183256D02*
X159448575Y-90135637D01*
X159448575Y-90135637D02*
X159424766Y-90111827D01*
X159424766Y-90111827D02*
X159377147Y-90088018D01*
X159377147Y-90088018D02*
X159281909Y-90064208D01*
X159281909Y-90064208D02*
X159234290Y-90040399D01*
X159234290Y-90040399D02*
X159210480Y-90016589D01*
X159210480Y-90016589D02*
X159186671Y-89968970D01*
X159186671Y-89968970D02*
X159186671Y-89921351D01*
X159186671Y-89921351D02*
X159210480Y-89873732D01*
X159210480Y-89873732D02*
X159234290Y-89849923D01*
X159234290Y-89849923D02*
X159281909Y-89826113D01*
X159281909Y-89826113D02*
X159400956Y-89826113D01*
X159400956Y-89826113D02*
X159472385Y-89849923D01*
X159615242Y-89826113D02*
X159900956Y-89826113D01*
X159758099Y-90326113D02*
X159758099Y-89826113D01*
D11*
%TO.C,U?*%
X149100006Y-86450008D02*
X149100008Y-103450007D01*
X151100002Y-84450007D02*
X153500007Y-84450007D01*
X151100005Y-105450005D02*
X164900008Y-105450005D01*
X153500007Y-84450007D02*
X153500008Y-83050005D01*
X153500008Y-83050005D02*
X162500006Y-83050008D01*
X162500006Y-83050008D02*
X162500009Y-84450008D01*
X162500009Y-84450008D02*
X164900005Y-84450007D01*
X166900004Y-103450004D02*
X166900002Y-86450005D01*
X149100006Y-86450008D02*
G75*
G02*
X151100002Y-84450007I2050002J-50001D01*
G01*
X151100005Y-105450005D02*
G75*
G02*
X149100008Y-103450007I50000J2049997D01*
G01*
X164900005Y-84450007D02*
G75*
G02*
X166900004Y-86450005I-50000J-2049999D01*
G01*
X166900004Y-103450004D02*
G75*
G02*
X164900008Y-105450005I-2049999J49998D01*
G01*
%TD*%
M02*
