M48
; DRILL file {KiCad 9.0.6} date 2025-12-30T20:41:02+0100
; FORMAT={-:-/ absolute / metric / decimal}
; #@! TF.CreationDate,2025-12-30T20:41:02+01:00
; #@! TF.GenerationSoftware,Kicad,Pcbnew,9.0.6
; #@! TF.FileFunction,Plated,1,2,PTH
FMAT,2
METRIC
; #@! TA.AperFunction,Plated,PTH,ViaDrill
T1C0.300
; #@! TA.AperFunction,Plated,PTH,ComponentDrill
T2C0.750
; #@! TA.AperFunction,Plated,PTH,ComponentDrill
T3C0.800
; #@! TA.AperFunction,Plated,PTH,ComponentDrill
T4C1.450
; #@! TA.AperFunction,Plated,PTH,ComponentDrill
T5C1.600
%
G90
G05
T1
X150.419Y-97.49
X150.482Y-94.949
X150.85Y-112.325
X159.116Y-100.819
X159.616Y-103.319
X161.016Y-100.819
X161.616Y-126.319
X161.616Y-127.819
X163.118Y-98.819
X170.116Y-138.319
X171.116Y-137.319
X171.117Y-139.32
X172.616Y-138.319
X174.116Y-118.819
X175.616Y-118.819
X179.116Y-134.319
X186.116Y-138.819
X187.625Y-138.819
X190.322Y-116.758
X190.322Y-116.758
X190.322Y-116.758
X190.616Y-103.819
X191.619Y-99.778
X193.839Y-115.82
X195.118Y-99.84
X208.941Y-110.082
X209.256Y-92.085
X211.012Y-124.808
X211.039Y-126.308
X211.967Y-108.635
X212.772Y-91.146
X227.359Y-93.671
X227.412Y-111.905
X230.348Y-121.579
X231.674Y-96.977
X232.385Y-113.492
X234.673Y-97.029
X244.244Y-121.7
X250.616Y-97.319
X251.664Y-126.33
X253.15Y-107.022
X256.101Y-107.756
X266.153Y-139.907
X266.662Y-135.436
X270.688Y-125.162
T2
X154.093Y-108.539
X154.093Y-110.539
T3
X152.285Y-104.158
X154.19Y-104.158
X159.27Y-88.918
X162.445Y-94.633
T4
X150.419Y-102.57
X165.581Y-87.33
T5
X137.804Y-178.264
X152.153Y-162.414
X172.0Y-154.1
X173.0Y-100.1
X173.0Y-134.1
X173.0Y-117.1
X191.0Y-115.1
X191.0Y-98.1
X191.0Y-132.1
X209.0Y-124.1
X209.0Y-90.1
X209.0Y-107.1
X227.567Y-132.463
X229.197Y-115.541
X230.826Y-98.619
X245.259Y-142.326
X248.503Y-125.639
X251.747Y-108.951
X263.883Y-140.853
X267.127Y-124.165
M30
