0
SECTION
2
HEADER
9
$INSUNITS
70
4
0
ENDSEC
0
SECTION
2
TABLES
0
TABLE
2
LTYPE
0
LTYPE
72
65
70
64
2
CONTINUOUS
3
______
73
0
40
0
0
ENDTAB
0
TABLE
2
LAYER
0
ENDTAB
0
ENDSEC
0
SECTION
2
ENTITIES
0
LINE
8
0
10
95.1339778
20
-112.9449538
11
112.048445
21
-106.7885912
0
LINE
8
0
10
113.2437901
20
-104.2251658
11
112.0959568
21
-101.0715199
0
LINE
8
0
10
92.2285323
20
-110.8099162
11
92.5705524
21
-111.7496088
0
LINE
8
0
10
76.3228702
20
-61.2618596
11
94.6769416
21
-54.5815239
0
LINE
8
0
10
75.1275251
20
-63.825285
11
77.8636863
21
-71.3428262
0
LINE
8
0
10
113.4745821
20
-98.4511844
11
127.6032477
21
-94.797263
0
LINE
8
0
10
129.038783
20
-92.3602077
11
128.1381782
21
-88.8778273
0
LINE
8
0
10
96.4056899
20
-46.0559828
11
115.3264812
21
-41.1627334
0
LINE
8
0
10
94.9701546
20
-48.4930381
11
95.9291967
21
-52.2013786
0
LINE
8
0
10
129.7616044
20
-86.4016905
11
140.2585956
21
-84.7391305
0
LINE
8
0
10
138.1942097
20
-33.3503909
11
137.8936991
21
-31.4530415
0
LINE
8
0
10
135.6054534
20
-29.7905338
11
117.8270633
21
-32.6063542
0
LINE
8
0
10
116.1645556
20
-34.8945999
11
116.8010978
21
-38.9135691
0
LINE
8
0
10
145.4608249
20
-92.0148994
11
161.2638383
21
-89.5119479
0
LINE
8
0
10
142.5468413
20
-86.4016382
11
143.1725792
21
-90.3523917
0
LINE
8
0
10
156.5983377
20
-34.4853238
11
156.6106961
21
-34.5633512
0
LINE
8
0
10
161.5767072
20
-91.4873245
11
161.5865842
21
-91.4857601
0
LINE
8
0
10
161.2638383
20
-89.5119479
11
161.5767072
21
-91.4873245
0
LINE
8
0
10
158.8989418
20
-36.2258589
11
191.1963503
21
-31.1104519
0
LINE
8
0
10
166.6906502
20
-110.926658
11
182.6105336
21
-108.4051961
0
LINE
8
0
10
212.129283
20
-95.4915189
11
204.0520203
21
-92.7102943
0
LINE
8
0
10
205.0567367
20
-115.5498399
11
217.0291611
21
-128.3886932
0
LINE
8
0
10
219.8558652
20
-128.4874038
11
232.2888782
21
-116.8934317
0
LINE
8
0
10
232.3875888
20
-114.0667276
11
218.9374851
21
-99.6432573
0
LINE
8
0
10
76.5094099
20
-114.4028533
11
89.6651068
21
-109.6145712
0
LINE
8
0
10
62.3172996
20
-81.2579591
11
73.9459845
21
-113.2075083
0
LINE
8
0
10
76.6683413
20
-73.9062517
11
63.5126447
21
-78.6945337
0
LINE
8
0
10
379.0923344
20
-106.7885912
11
396.0068016
21
-112.9449538
0
LINE
8
0
10
398.570227
20
-111.7496088
11
398.9122471
21
-110.8099162
0
LINE
8
0
10
379.0448226
20
-101.0715199
11
377.8969893
21
-104.2251658
0
LINE
8
0
10
413.2770931
20
-71.3428262
11
416.0132543
21
-63.825285
0
LINE
8
0
10
396.4638378
20
-54.5815239
11
414.8179092
21
-61.2618596
0
LINE
8
0
10
363.5375317
20
-94.797263
11
377.6661973
21
-98.4511844
0
LINE
8
0
10
363.0026012
20
-88.8778273
11
362.1019964
21
-92.3602077
0
LINE
8
0
10
395.2115827
20
-52.2013786
11
396.1706248
21
-48.4930381
0
LINE
8
0
10
375.8142982
20
-41.1627334
11
394.7350895
21
-46.0559828
0
LINE
8
0
10
350.8821838
20
-84.7391305
11
361.379175
21
-86.4016905
0
LINE
8
0
10
374.3396816
20
-38.9135691
11
374.9762238
21
-34.8945999
0
LINE
8
0
10
373.3137161
20
-32.6063542
11
355.535326
21
-29.7905338
0
LINE
8
0
10
353.2470803
20
-31.4530415
11
352.9465697
21
-33.3503909
0
LINE
8
0
10
329.8769411
20
-89.5119479
11
345.6799545
21
-92.0148994
0
LINE
8
0
10
347.9682002
20
-90.3523917
11
348.5939381
21
-86.4016382
0
LINE
8
0
10
334.5300833
20
-34.5633512
11
334.5424417
21
-34.4853238
0
LINE
8
0
10
329.5541952
20
-91.4857601
11
329.5640722
21
-91.4873245
0
LINE
8
0
10
329.5640722
20
-91.4873245
11
329.8769411
21
-89.5119479
0
LINE
8
0
10
299.9444291
20
-31.1104519
11
332.2418376
21
-36.2258589
0
LINE
8
0
10
308.5302458
20
-108.4051961
11
324.4501292
21
-110.926658
0
LINE
8
0
10
287.0887591
20
-92.7102943
11
279.0114964
21
-95.4915189
0
LINE
8
0
10
274.1116183
20
-128.3886932
11
286.0840427
21
-115.5498399
0
LINE
8
0
10
272.2032943
20
-99.6432573
11
258.7531906
21
-114.0667276
0
LINE
8
0
10
258.8519012
20
-116.8934317
11
271.2849142
21
-128.4874038
0
LINE
8
0
10
401.4756726
20
-109.6145712
11
414.6313695
21
-114.4028533
0
LINE
8
0
10
417.1947949
20
-113.2075083
11
428.8234798
21
-81.2579591
0
LINE
8
0
10
427.6281347
20
-78.6945337
11
414.4724381
21
-73.9062517
0
LINE
8
0
10
161.5865842
20
-91.4857601
11
164.4024045
21
-109.2641503
0
LINE
8
0
10
154.310092
20
-32.8228161
11
140.4824554
21
-35.0128986
0
LINE
8
0
10
202.72778
20
-91.1321261
11
193.484596
21
-32.7729596
0
LINE
8
0
10
326.7383749
20
-109.2641503
11
329.5541952
21
-91.4857601
0
LINE
8
0
10
350.658324
20
-35.0128986
11
336.8306874
21
-32.8228161
0
LINE
8
0
10
297.6561834
20
-32.7729596
11
288.4129994
21
-91.1321261
0
LINE
8
0
10
212.5127404
20
-95.670944
11
218.5093716
21
-99.295642
0
LINE
8
0
10
204.1967699
20
-115.0068223
11
183.5261432
21
-108.4735585
0
LINE
8
0
10
278.628039
20
-95.670944
11
272.6314078
21
-99.295642
0
LINE
8
0
10
286.9440095
20
-115.0068223
11
307.6146362
21
-108.4735585
0
ARC
8
0
10
396.6908418
20
-111.0655686
40
2
50
250.0000019
51
340.0000019
0
ARC
8
0
10
400.7916324
20
-111.4939565
40
2
50
70.0000019
51
160.0000019
0
ARC
8
0
10
415.3154097
20
-112.5234681
40
2
50
250.0000019
51
340.0000019
0
ARC
8
0
10
426.9440945
20
-80.5739189
40
2
50
340.0000019
51
70.0000019
0
ARC
8
0
10
415.1564783
20
-72.0268664
40
2
50
160.0000019
51
250.0000019
0
ARC
8
0
10
414.133869
20
-63.1412448
40
2
50
340.0000019
51
70.0000019
0
ARC
8
0
10
397.147878
20
-52.7021386
40
2
50
165.4999996
51
250.0000019
0
ARC
8
0
10
394.2343295
20
-47.9922781
40
2
50
345.4999996
51
75.4999996
0
ARC
8
0
10
376.3150582
20
-39.2264382
40
2
50
170.9999977
51
255.4999996
0
ARC
8
0
10
373.0008471
20
-34.5817309
40
2
50
350.9999977
51
80.9999977
0
ARC
8
0
10
355.222457
20
-31.7659105
40
2
50
80.9999977
51
170.9999977
0
ARC
8
0
10
350.971193
20
-33.0375219
40
2
50
260.9999977
51
350.9999977
0
ARC
8
0
10
336.5178183
20
-34.7981928
40
2
50
80.9999977
51
170.9999977
0
ARC
8
0
10
332.5547066
20
-34.2504822
40
2
50
260.9999977
51
350.9999977
0
ARC
8
0
10
299.6315601
20
-33.0858286
40
2
50
80.9999977
51
170.9999977
0
ARC
8
0
10
286.4376227
20
-90.8192571
40
2
50
289.000002
51
350.9999977
0
ARC
8
0
10
279.6626328
20
-97.382556
40
2
50
109.000002
51
121.1511071
0
ARC
8
0
10
273.6660016
20
-101.007254
40
2
50
121.1511071
51
136.9999983
0
ARC
8
0
10
260.215898
20
-115.4307243
40
2
50
136.9999983
51
226.9999983
0
ARC
8
0
10
272.6489109
20
-127.0246965
40
2
50
226.9999983
51
316.9999983
0
ARC
8
0
10
287.5467501
20
-116.9138366
40
2
50
107.5399248
51
136.9999983
0
ARC
8
0
10
308.2173768
20
-110.3805728
40
2
50
80.9999977
51
107.5399248
0
ARC
8
0
10
324.7629982
20
-108.9512813
40
2
50
260.9999977
51
350.9999977
0
ARC
8
0
10
345.9928235
20
-90.0395227
40
2
50
260.9999977
51
350.9999977
0
ARC
8
0
10
350.5693148
20
-86.7145072
40
2
50
80.9999977
51
170.9999977
0
ARC
8
0
10
361.0663059
20
-88.3770672
40
2
50
345.4999996
51
80.9999977
0
ARC
8
0
10
364.0382917
20
-92.8609677
40
2
50
165.4999996
51
255.4999996
0
ARC
8
0
10
377.1654373
20
-100.3874797
40
2
50
340.0000019
51
75.4999996
0
ARC
8
0
10
379.7763746
20
-104.909206
40
2
50
160.0000019
51
250.0000019
0
ARC
8
0
10
111.3644048
20
-104.909206
40
2
50
289.9999981
51
19.9999981
0
ARC
8
0
10
113.9753421
20
-100.3874797
40
2
50
104.5000004
51
199.9999981
0
ARC
8
0
10
127.1024877
20
-92.8609677
40
2
50
284.5000004
51
14.5000004
0
ARC
8
0
10
130.0744735
20
-88.3770672
40
2
50
99.0000023
51
194.5000004
0
ARC
8
0
10
140.5714646
20
-86.7145072
40
2
50
9.0000023
51
99.0000023
0
ARC
8
0
10
145.1479559
20
-90.0395227
40
2
50
189.0000023
51
279.0000023
0
ARC
8
0
10
166.3777812
20
-108.9512813
40
2
50
189.0000023
51
279.0000023
0
ARC
8
0
10
182.9234026
20
-110.3805728
40
2
50
72.4600752
51
99.0000023
0
ARC
8
0
10
203.5940293
20
-116.9138366
40
2
50
43.0000017
51
72.4600752
0
ARC
8
0
10
218.4918685
20
-127.0246965
40
2
50
223.0000017
51
313.0000017
0
ARC
8
0
10
230.9248814
20
-115.4307243
40
2
50
313.0000017
51
43.0000017
0
ARC
8
0
10
217.4747778
20
-101.007254
40
2
50
43.0000017
51
58.8488929
0
ARC
8
0
10
211.4781466
20
-97.382556
40
2
50
58.8488929
51
70.999998
0
ARC
8
0
10
204.7031567
20
-90.8192571
40
2
50
189.0000023
51
250.999998
0
ARC
8
0
10
191.5092193
20
-33.0858286
40
2
50
9.0000023
51
99.0000023
0
ARC
8
0
10
158.5860728
20
-34.2504822
40
2
50
189.0000023
51
279.0000023
0
ARC
8
0
10
154.6229611
20
-34.7981928
40
2
50
9.0000023
51
99.0000023
0
ARC
8
0
10
140.1695864
20
-33.0375219
40
2
50
189.0000023
51
279.0000023
0
ARC
8
0
10
135.9183224
20
-31.7659105
40
2
50
9.0000023
51
99.0000023
0
ARC
8
0
10
118.1399323
20
-34.5817309
40
2
50
99.0000023
51
189.0000023
0
ARC
8
0
10
114.8257212
20
-39.2264382
40
2
50
284.5000004
51
9.0000023
0
ARC
8
0
10
96.9064499
20
-47.9922781
40
2
50
104.5000004
51
194.5000004
0
ARC
8
0
10
93.9929014
20
-52.7021386
40
2
50
289.9999981
51
14.5000004
0
ARC
8
0
10
77.0069104
20
-63.1412448
40
2
50
109.9999981
51
199.9999981
0
ARC
8
0
10
75.9843011
20
-72.0268664
40
2
50
289.9999981
51
19.9999981
0
ARC
8
0
10
64.1966849
20
-80.5739189
40
2
50
109.9999981
51
199.9999981
0
ARC
8
0
10
75.8253697
20
-112.5234681
40
2
50
199.9999981
51
289.9999981
0
ARC
8
0
10
90.349147
20
-111.4939565
40
2
50
19.9999981
51
109.9999981
0
ARC
8
0
10
94.4499376
20
-111.0655686
40
2
50
199.9999981
51
289.9999981
0
ENDSEC
0
EOF